<svg width="20" height="20" viewBox="0 0 20 20" fill="none" xmlns="http://www.w3.org/2000/svg">
<path d="M10 13.3333C11.3807 13.3333 12.5 12.214 12.5 10.8333C12.5 9.45254 11.3807 8.33325 10 8.33325C8.61929 8.33325 7.5 9.45254 7.5 10.8333C7.5 12.214 8.61929 13.3333 10 13.3333Z" stroke="#7A7A7A"/>
<path d="M1.6665 11.1363C1.6665 8.58283 1.6665 7.30601 2.29069 6.38883C2.5609 5.99178 2.90813 5.65087 3.31254 5.38557C3.9128 4.99177 4.66428 4.85102 5.81484 4.80072C6.36388 4.80072 6.8366 4.39223 6.94428 3.86363C7.1058 3.07074 7.81488 2.5 8.63842 2.5H11.3613C12.1848 2.5 12.8938 3.07074 13.0554 3.86363C13.1631 4.39223 13.6358 4.80072 14.1848 4.80072C15.3354 4.85102 16.0868 4.99177 16.6872 5.38557C17.0915 5.65087 17.4388 5.99178 17.709 6.38883C18.3332 7.30601 18.3332 8.58283 18.3332 11.1363C18.3332 13.6899 18.3332 14.9667 17.709 15.8839C17.4388 16.2809 17.0915 16.6218 16.6872 16.8872C15.753 17.5 14.4526 17.5 11.8517 17.5H8.14799C5.54713 17.5 4.2467 17.5 3.31254 16.8872C2.90813 16.6218 2.5609 16.2809 2.29069 15.8839C2.11439 15.6248 1.98789 15.3371 1.89711 15" stroke="#7A7A7A" stroke-linecap="round"/>
<path d="M15.8333 8.33325H15" stroke="#7A7A7A" stroke-linecap="round"/>
</svg>
