<svg width="14" height="14" viewBox="0 0 14 14" fill="none" xmlns="http://www.w3.org/2000/svg">
<g clip-path="url(#clip0_7_607)">
<path d="M8.47582 5.52417L5.52415 8.47583C5.13274 8.08442 4.91284 7.55355 4.91284 7C4.91284 6.72591 4.96683 6.45451 5.07172 6.20129C5.1766 5.94806 5.33034 5.71798 5.52415 5.52417C5.71796 5.33036 5.94805 5.17662 6.20127 5.07173C6.45449 4.96684 6.7259 4.91286 6.99999 4.91286C7.55353 4.91286 8.0844 5.13275 8.47582 5.52417Z" stroke="#D2D2D2" stroke-linecap="round" stroke-linejoin="round"/>
<path d="M10.395 3.36583C9.37414 2.59583 8.20747 2.17583 6.99997 2.17583C4.9408 2.17583 3.02164 3.38917 1.6858 5.48917C1.1608 6.31167 1.1608 7.69417 1.6858 8.51667C2.14664 9.24 2.6833 9.86417 3.26664 10.3658M4.91164 11.3925C5.57664 11.6725 6.28247 11.8242 6.99997 11.8242C9.05914 11.8242 10.9783 10.6108 12.3141 8.51083C12.8391 7.68833 12.8391 6.30583 12.3141 5.48333C12.1216 5.18 11.9116 4.89417 11.6958 4.62583" stroke="#D2D2D2" stroke-linecap="round" stroke-linejoin="round"/>
<path d="M9.04752 7.40833C8.9685 7.81525 8.76967 8.18927 8.47656 8.48238C8.18345 8.77549 7.80944 8.97431 7.40252 9.05333M5.52419 8.47583L1.16669 12.8333M12.8334 1.16667L8.47585 5.52417" stroke="#D2D2D2" stroke-linecap="round" stroke-linejoin="round"/>
</g>
<defs>
<clipPath id="clip0_7_607">
<rect width="14" height="14" fill="white"/>
</clipPath>
</defs>
</svg>
