<svg width="16" height="16" viewBox="0 0 16 16" fill="none" xmlns="http://www.w3.org/2000/svg">
<path d="M8.66675 6H4.66675M14.6667 7.31333V8.68667C14.6667 9.05333 14.3734 9.35333 14.0001 9.36667H12.6934C11.9734 9.36667 11.3134 8.84 11.2534 8.12C11.2134 7.7 11.3734 7.30667 11.6534 7.03333C11.9001 6.78 12.2401 6.63333 12.6134 6.63333H14.0001C14.3734 6.64667 14.6667 6.94667 14.6667 7.31333Z" stroke="#8F9098" stroke-linecap="round" stroke-linejoin="round"/>
<path d="M11.6533 7.03334C11.3733 7.30667 11.2133 7.7 11.2533 8.12C11.3133 8.84 11.9733 9.36667 12.6933 9.36667H13.9999V10.3333C13.9999 12.3333 12.6666 13.6667 10.6666 13.6667H4.66659C2.66659 13.6667 1.33325 12.3333 1.33325 10.3333V5.66667C1.33325 3.85334 2.42659 2.58667 4.12659 2.37334C4.29992 2.34667 4.47992 2.33334 4.66659 2.33334H10.6666C10.8399 2.33334 11.0066 2.34 11.1666 2.36667C12.8866 2.56667 13.9999 3.84 13.9999 5.66667V6.63334H12.6133C12.2399 6.63334 11.8999 6.78 11.6533 7.03334Z" stroke="#8F9098" stroke-linecap="round" stroke-linejoin="round"/>
</svg>
