<svg width="16" height="16" viewBox="0 0 16 16" fill="none" xmlns="http://www.w3.org/2000/svg">
<path d="M7.99992 8.95334C8.27307 8.95334 8.54355 8.89953 8.7959 8.795C9.04826 8.69047 9.27756 8.53726 9.4707 8.34412C9.66385 8.15097 9.81706 7.92167 9.92159 7.66932C10.0261 7.41696 10.0799 7.14648 10.0799 6.87334C10.0799 6.60019 10.0261 6.32971 9.92159 6.07735C9.81706 5.825 9.66385 5.5957 9.4707 5.40255C9.27756 5.20941 9.04826 5.0562 8.7959 4.95167C8.54355 4.84714 8.27307 4.79333 7.99992 4.79333C7.44827 4.79333 6.91922 5.01248 6.52914 5.40255C6.13906 5.79263 5.91992 6.32168 5.91992 6.87334C5.91992 7.42499 6.13906 7.95404 6.52914 8.34412C6.91922 8.73419 7.44827 8.95334 7.99992 8.95334Z" stroke="#8F9098"/>
<path d="M2.4133 5.66C3.72664 -0.113337 12.28 -0.10667 13.5866 5.66666C14.3533 9.05333 12.2466 11.92 10.4 13.6933C9.75469 14.3157 8.89314 14.6635 7.99664 14.6635C7.10013 14.6635 6.23859 14.3157 5.5933 13.6933C3.7533 11.92 1.64664 9.04666 2.4133 5.66Z" stroke="#8F9098"/>
</svg>
