<svg width="20" height="20" viewBox="0 0 20 20" fill="none" xmlns="http://www.w3.org/2000/svg">
<path d="M2.64306 17.357C3.61937 18.3333 5.19071 18.3333 8.33341 18.3333H11.6667C14.8094 18.3333 16.3808 18.3333 17.3571 17.357C18.3334 16.3807 18.3334 14.8093 18.3334 11.6667C18.3334 10.6918 18.3334 9.86825 18.3042 9.16667M17.3571 5.97631C16.3808 5 14.8094 5 11.6667 5H8.33341C5.19071 5 3.61937 5 2.64306 5.97631C1.66675 6.95262 1.66675 8.524 1.66675 11.6667C1.66675 12.6415 1.66675 13.4651 1.69588 14.1667" stroke="#A8A8A8" stroke-linecap="round"/>
<path d="M10.0001 1.66666C11.5714 1.66666 12.3571 1.66666 12.8452 2.15481C13.3334 2.64296 13.3334 3.42864 13.3334 4.99999M7.15491 2.15481C6.66675 2.64296 6.66675 3.42864 6.66675 4.99999" stroke="#A8A8A8" stroke-linecap="round"/>
<path d="M9.99992 14.4444C10.9204 14.4444 11.6666 13.8226 11.6666 13.0556C11.6666 12.2885 10.9204 11.6667 9.99992 11.6667C9.07942 11.6667 8.33325 11.0448 8.33325 10.2778C8.33325 9.51076 9.07942 8.88893 9.99992 8.88893M9.99992 14.4444C9.07942 14.4444 8.33325 13.8226 8.33325 13.0556M9.99992 14.4444V15M9.99992 8.88893V8.33334M9.99992 8.88893C10.9204 8.88893 11.6666 9.51076 11.6666 10.2778" stroke="#A8A8A8" stroke-linecap="round"/>
</svg>
