<svg width="187" height="58" viewBox="0 0 187 58" fill="none" xmlns="http://www.w3.org/2000/svg">
<path d="M55.686 21.6151C56.3124 21.6151 56.9238 21.3603 57.3701 20.9182C57.8127 20.4761 58.0678 19.8616 58.0678 19.2359C58.0678 18.6102 57.8127 17.9995 57.3701 17.5536C56.9275 17.1115 56.3161 16.8567 55.686 16.8567C55.0558 16.8567 54.4482 17.1115 54.0018 17.5536C53.5592 17.9957 53.3041 18.6102 53.3041 19.2359C53.3041 19.8616 53.5592 20.4724 54.0018 20.9182C54.4444 21.3603 55.0596 21.6151 55.686 21.6151Z" fill="white"/>
<path d="M47.2464 21.6713C48.5598 21.6713 49.6245 20.6078 49.6245 19.2959C49.6245 17.9839 48.5598 16.9204 47.2464 16.9204C45.933 16.9204 44.8683 17.9839 44.8683 19.2959C44.8683 20.6078 45.933 21.6713 47.2464 21.6713Z" fill="white"/>
<path d="M38.8032 16.8642C38.1767 16.8642 37.5654 17.119 37.119 17.5611C36.6764 18.0032 36.4213 18.6177 36.4213 19.2434C36.4213 19.8691 36.6764 20.4798 37.119 20.9257C37.5616 21.3678 38.1767 21.6226 38.8032 21.6226C39.4296 21.6226 40.041 21.3678 40.4873 20.9257C40.9299 20.4836 41.185 19.8691 41.185 19.2434C41.185 18.6177 40.9299 18.007 40.4873 17.5611C40.0447 17.119 39.4333 16.8642 38.8032 16.8642Z" fill="white"/>
<path d="M29.0058 4.80712C30.3191 4.80712 31.3838 3.74359 31.3838 2.43167C31.3838 1.11974 30.3191 0.0562134 29.0058 0.0562134C27.6924 0.0562134 26.6277 1.11974 26.6277 2.43167C26.6277 3.74359 27.6924 4.80712 29.0058 4.80712Z" fill="white"/>
<path d="M19.2046 0C18.5782 0 17.9668 0.25478 17.5205 0.696899C17.0779 1.13902 16.8228 1.75349 16.8228 2.3792C16.8228 3.00491 17.0779 3.61563 17.5205 4.0615C17.9631 4.50362 18.5782 4.7584 19.2046 4.7584C19.831 4.7584 20.4424 4.50362 20.8888 4.0615C21.3314 3.61938 21.5865 3.00491 21.5865 2.3792C21.5865 1.75349 21.3314 1.14276 20.8888 0.696899C20.4462 0.25478 19.831 0 19.2046 0Z" fill="white"/>
<path d="M19.1484 13.1849C20.4617 13.1849 21.5264 12.1214 21.5264 10.8094C21.5264 9.49752 20.4617 8.43399 19.1484 8.43399C17.835 8.43399 16.7703 9.49752 16.7703 10.8094C16.7703 12.1214 17.835 13.1849 19.1484 13.1849Z" fill="white"/>
<path d="M19.2046 16.8642C18.5782 16.8642 17.9668 17.119 17.5205 17.5611C17.0779 18.0032 16.8228 18.6177 16.8228 19.2434C16.8228 19.8691 17.0779 20.4798 17.5205 20.9257C17.9631 21.3678 18.5782 21.6226 19.2046 21.6226C19.831 21.6226 20.4424 21.3678 20.8888 20.9257C21.3314 20.4836 21.5865 19.8691 21.5865 19.2434C21.5865 18.6177 21.3314 18.007 20.8888 17.5611C20.4462 17.119 19.831 16.8642 19.2046 16.8642Z" fill="white"/>
<path d="M10.7651 21.6713C12.0785 21.6713 13.1432 20.6078 13.1432 19.2959C13.1432 17.9839 12.0785 16.9204 10.7651 16.9204C9.45172 16.9204 8.38702 17.9839 8.38702 19.2959C8.38702 20.6078 9.45172 21.6713 10.7651 21.6713Z" fill="white"/>
<path d="M2.43435 16.8642C1.80795 16.8642 1.19655 17.119 0.75019 17.5611C0.307582 18.0032 0.0525208 18.6177 0.0525208 19.2434C0.0525208 19.8691 0.307582 20.4798 0.75019 20.9257C1.1928 21.3678 1.80795 21.6226 2.43435 21.6226C3.06075 21.6226 3.67215 21.3678 4.1185 20.9257C4.56111 20.4836 4.81617 19.8691 4.81617 19.2434C4.81617 18.6177 4.56111 18.007 4.1185 17.5611C3.6759 17.119 3.06075 16.8642 2.43435 16.8642Z" fill="white"/>
<path d="M2.37808 31.4054C3.69145 31.4054 4.75615 30.3419 4.75615 29.03C4.75615 27.718 3.69145 26.6545 2.37808 26.6545C1.0647 26.6545 0 27.718 0 29.03C0 30.3419 1.0647 31.4054 2.37808 31.4054Z" fill="white"/>
<path d="M2.43435 36.3287C1.80795 36.3287 1.19655 36.5835 0.75019 37.0256C0.303832 37.4677 0.0525208 38.0822 0.0525208 38.7079C0.0525208 39.3336 0.307582 39.9443 0.75019 40.3902C1.1928 40.8323 1.80795 41.0871 2.43435 41.0871C3.06075 41.0871 3.67215 40.8323 4.1185 40.3902C4.56111 39.9481 4.81617 39.3336 4.81617 38.7079C4.81617 38.0822 4.56111 37.4714 4.1185 37.0256C3.6759 36.5835 3.06075 36.3287 2.43435 36.3287Z" fill="white"/>
<path d="M10.7651 41.1358C12.0785 41.1358 13.1432 40.0723 13.1432 38.7603C13.1432 37.4484 12.0785 36.3849 10.7651 36.3849C9.45172 36.3849 8.38702 37.4484 8.38702 38.7603C8.38702 40.0723 9.45172 41.1358 10.7651 41.1358Z" fill="white"/>
<path d="M19.2046 36.3287C18.5782 36.3287 17.9668 36.5835 17.5205 37.0256C17.0779 37.4677 16.8228 38.0822 16.8228 38.7079C16.8228 39.3336 17.0779 39.9443 17.5205 40.3902C17.9631 40.8323 18.5782 41.0871 19.2046 41.0871C19.831 41.0871 20.4424 40.8323 20.8888 40.3902C21.3314 39.9481 21.5865 39.3336 21.5865 38.7079C21.5865 38.0822 21.3314 37.4714 20.8888 37.0256C20.4462 36.5835 19.831 36.3287 19.2046 36.3287Z" fill="white"/>
<path d="M19.1484 49.5136C20.4617 49.5136 21.5264 48.45 21.5264 47.1381C21.5264 45.8262 20.4617 44.7627 19.1484 44.7627C17.835 44.7627 16.7703 45.8262 16.7703 47.1381C16.7703 48.45 17.835 49.5136 19.1484 49.5136Z" fill="white"/>
<path d="M19.2046 53.1929C18.5782 53.1929 17.9668 53.4477 17.5205 53.8898C17.0779 54.3319 16.8228 54.9464 16.8228 55.5721C16.8228 56.1978 17.0779 56.8085 17.5205 57.2544C17.9631 57.6965 18.5782 57.9513 19.2046 57.9513C19.831 57.9513 20.4424 57.6965 20.8888 57.2544C21.3314 56.8123 21.5865 56.2016 21.5865 55.5721C21.5865 54.9426 21.3314 54.3357 20.8888 53.8898C20.4462 53.4477 19.831 53.1929 19.2046 53.1929Z" fill="white"/>
<path d="M29.0058 58C30.3191 58 31.3838 56.9365 31.3838 55.6245C31.3838 54.3126 30.3191 53.2491 29.0058 53.2491C27.6924 53.2491 26.6277 54.3126 26.6277 55.6245C26.6277 56.9365 27.6924 58 29.0058 58Z" fill="white"/>
<path d="M38.8032 36.3287C38.1767 36.3287 37.5654 36.5835 37.119 37.0256C36.6764 37.4677 36.4213 38.0822 36.4213 38.7079C36.4213 39.3336 36.6764 39.9443 37.119 40.3902C37.5616 40.8323 38.1767 41.0871 38.8032 41.0871C39.4296 41.0871 40.041 40.8323 40.4873 40.3902C40.9299 39.9481 41.185 39.3336 41.185 38.7079C41.185 38.0822 40.9299 37.4714 40.4873 37.0256C40.0447 36.5835 39.4333 36.3287 38.8032 36.3287Z" fill="white"/>
<path d="M47.6275 41.1061C48.9237 40.8946 49.8028 39.6735 49.591 38.3787C49.3792 37.084 48.1567 36.2059 46.8606 36.4174C45.5644 36.629 44.6853 37.8501 44.8971 39.1448C45.1089 40.4396 46.3313 41.3177 47.6275 41.1061Z" fill="white"/>
<path d="M55.686 36.3287C55.0596 36.3287 54.4482 36.5835 54.0018 37.0256C53.5592 37.4677 53.3041 38.0822 53.3041 38.7079C53.3041 39.3336 53.5592 39.9443 54.0018 40.3902C54.4444 40.8323 55.0596 41.0871 55.686 41.0871C56.3124 41.0871 56.9238 40.8323 57.3701 40.3902C57.8127 39.9481 58.0678 39.3336 58.0678 38.7079C58.0678 38.0822 57.8127 37.4714 57.3701 37.0256C56.9275 36.5797 56.3161 36.3287 55.686 36.3287Z" fill="white"/>
<path d="M57.8268 29.9557C58.3364 28.7465 57.7682 27.3536 56.5577 26.8446C55.3472 26.3356 53.9528 26.9032 53.4433 28.1123C52.9337 29.3215 53.5019 30.7143 54.7123 31.2233C55.9228 31.7324 57.3172 31.1648 57.8268 29.9557Z" fill="white"/>
<path d="M38.7469 13.1849C40.0603 13.1849 41.125 12.1214 41.125 10.8094C41.125 9.49752 40.0603 8.43399 38.7469 8.43399C37.4335 8.43399 36.3688 9.49752 36.3688 10.8094C36.3688 12.1214 37.4335 13.1849 38.7469 13.1849Z" fill="white"/>
<path d="M38.8032 0C38.1767 0 37.5654 0.25478 37.119 0.696899C36.6764 1.13902 36.4213 1.75349 36.4213 2.3792C36.4213 3.00491 36.6764 3.61563 37.119 4.0615C37.5616 4.50362 38.1767 4.7584 38.8032 4.7584C39.4296 4.7584 40.041 4.50362 40.4873 4.0615C40.9299 3.61938 41.185 3.00491 41.185 2.3792C41.185 1.75349 40.9299 1.14276 40.4873 0.696899C40.0447 0.25478 39.4333 0 38.8032 0Z" fill="white"/>
<path d="M38.8032 53.1929C38.1767 53.1929 37.5654 53.4477 37.119 53.8898C36.6764 54.3319 36.4213 54.9464 36.4213 55.5721C36.4213 56.1978 36.6764 56.8085 37.119 57.2544C37.5616 57.6965 38.1767 57.9513 38.8032 57.9513C39.4296 57.9513 40.041 57.6965 40.4873 57.2544C40.9299 56.8123 41.185 56.2016 41.185 55.5721C41.185 54.9426 40.9299 54.3357 40.4873 53.8898C40.0447 53.4477 39.4333 53.1929 38.8032 53.1929Z" fill="white"/>
<path d="M38.7469 49.5136C40.0603 49.5136 41.125 48.45 41.125 47.1381C41.125 45.8262 40.0603 44.7627 38.7469 44.7627C37.4335 44.7627 36.3688 45.8262 36.3688 47.1381C36.3688 48.45 37.4335 49.5136 38.7469 49.5136Z" fill="white"/>
<path d="M64.0693 21.0494C63.5929 21.0494 63.1241 20.8545 62.7865 20.5173C62.4489 20.1801 62.2538 19.7118 62.2538 19.2359C62.2538 18.7601 62.4489 18.2917 62.7865 17.9545C63.1241 17.6173 63.5929 17.4225 64.0693 17.4225C64.5456 17.4225 65.0145 17.6173 65.3521 17.9545C65.6897 18.2917 65.8847 18.7601 65.8847 19.2359C65.8847 19.7118 65.6897 20.1801 65.3521 20.5173C65.0145 20.8545 64.5456 21.0494 64.0693 21.0494Z" fill="white"/>
<path d="M64.0693 40.5176C63.5929 40.5176 63.1241 40.3227 62.7865 39.9855C62.4489 39.6483 62.2538 39.18 62.2538 38.7041C62.2538 38.2283 62.4489 37.7599 62.7865 37.4227C63.1241 37.0855 63.5929 36.8907 64.0693 36.8907C64.5456 36.8907 65.0145 37.0855 65.3521 37.4227C65.6897 37.7599 65.8847 38.2283 65.8847 38.7041C65.8847 39.18 65.6897 39.6483 65.3521 39.9855C65.0145 40.3227 64.5456 40.5176 64.0693 40.5176Z" fill="white"/>
<path d="M64.013 30.8397C65.0136 30.8397 65.8247 30.0294 65.8247 29.03C65.8247 28.0305 65.0136 27.2203 64.013 27.2203C63.0124 27.2203 62.2013 28.0305 62.2013 29.03C62.2013 30.0294 63.0124 30.8397 64.013 30.8397Z" fill="white"/>
<path d="M47.1302 12.6191C48.1307 12.6191 48.9419 11.8089 48.9419 10.8094C48.9419 9.80995 48.1307 8.99973 47.1302 8.99973C46.1296 8.99973 45.3185 9.80995 45.3185 10.8094C45.3185 11.8089 46.1296 12.6191 47.1302 12.6191Z" fill="white"/>
<path d="M47.1902 4.18888C46.7138 4.18888 46.2449 3.99405 45.9074 3.65684C45.5698 3.31963 45.3785 2.85129 45.3785 2.37545C45.3785 1.89961 45.5735 1.43126 45.9111 1.09405C46.2487 0.756844 46.7176 0.562012 47.1939 0.562012C47.6703 0.562012 48.1391 0.756844 48.4767 1.09405C48.8143 1.43126 49.0094 1.89961 49.0094 2.37545C49.0094 2.85129 48.8143 3.31963 48.4767 3.65684C48.1391 3.99405 47.6703 4.18888 47.1939 4.18888H47.1902Z" fill="white"/>
<path d="M47.1902 57.378C46.7138 57.378 46.2449 57.1832 45.9074 56.846C45.5698 56.5088 45.3785 56.0404 45.3785 55.5646C45.3785 55.0888 45.5735 54.6204 45.9111 54.2832C46.2487 53.946 46.7176 53.7549 47.1939 53.7549C47.6703 53.7549 48.1391 53.9497 48.4767 54.287C48.8143 54.6242 49.0094 55.0925 49.0094 55.5683C49.0094 56.0442 48.8143 56.5125 48.4767 56.8497C48.1391 57.187 47.6703 57.3818 47.1939 57.3818L47.1902 57.378Z" fill="white"/>
<path d="M47.1302 48.9478C48.1307 48.9478 48.9419 48.1376 48.9419 47.1381C48.9419 46.1387 48.1307 45.3284 47.1302 45.3284C46.1296 45.3284 45.3185 46.1387 45.3185 47.1381C45.3185 48.1376 46.1296 48.9478 47.1302 48.9478Z" fill="white"/>
<path d="M72.5688 20.4836C72.2425 20.4836 71.9199 20.3525 71.6873 20.1202C71.4548 19.8879 71.3235 19.5694 71.3235 19.2397C71.3235 18.91 71.4548 18.5915 71.6873 18.3592C71.9199 18.1269 72.2387 17.9958 72.5688 17.9958C72.8989 17.9958 73.2177 18.1269 73.4503 18.3592C73.6828 18.5915 73.8141 18.91 73.8141 19.2397C73.8141 19.5694 73.6828 19.8879 73.4503 20.1202C73.2177 20.3525 72.8951 20.4836 72.5688 20.4836Z" fill="white"/>
<path d="M72.5688 39.9518C72.2425 39.9518 71.9199 39.8207 71.6873 39.5884C71.4548 39.3561 71.3235 39.0376 71.3235 38.7079C71.3235 38.3782 71.4548 38.0597 71.6873 37.8274C71.9199 37.5951 72.2387 37.464 72.5688 37.464C72.8989 37.464 73.2177 37.5951 73.4503 37.8274C73.6828 38.0597 73.8141 38.3782 73.8141 38.7079C73.8141 39.0376 73.6828 39.3561 73.4503 39.5884C73.2177 39.8207 72.8951 39.9518 72.5688 39.9518Z" fill="white"/>
<path d="M72.5126 30.2739C73.2003 30.2739 73.7579 29.717 73.7579 29.03C73.7579 28.343 73.2003 27.7861 72.5126 27.7861C71.8248 27.7861 71.2673 28.343 71.2673 29.03C71.2673 29.717 71.8248 30.2739 72.5126 30.2739Z" fill="white"/>
<path d="M56.8605 11.0079C56.9711 10.3298 56.5104 9.69063 55.8316 9.5802C55.1528 9.46977 54.5129 9.92994 54.4023 10.608C54.2918 11.2861 54.7524 11.9253 55.4313 12.0357C56.1101 12.1461 56.75 11.686 56.8605 11.0079Z" fill="white"/>
<path d="M55.686 3.62314C55.3596 3.62314 55.0371 3.492 54.8045 3.2597C54.572 3.0274 54.4407 2.70893 54.4407 2.37921C54.4407 2.0495 54.572 1.73102 54.8045 1.49872C55.0371 1.26642 55.3559 1.13528 55.686 1.13528C56.0161 1.13528 56.3349 1.26642 56.5674 1.49872C56.8 1.73102 56.9313 2.0495 56.9313 2.37921C56.9313 2.70893 56.8 3.0274 56.5674 3.2597C56.3349 3.492 56.0123 3.62314 55.686 3.62314Z" fill="white"/>
<path d="M55.686 56.8123C55.3596 56.8123 55.0371 56.6811 54.8045 56.4489C54.572 56.2166 54.4407 55.8981 54.4407 55.5684C54.4407 55.2386 54.572 54.9202 54.8045 54.6879C55.0371 54.4556 55.3559 54.3244 55.686 54.3244C56.0161 54.3244 56.3349 54.4556 56.5674 54.6879C56.8 54.9202 56.9313 55.2386 56.9313 55.5684C56.9313 55.8981 56.8 56.2166 56.5674 56.4489C56.3349 56.6811 56.0161 56.8123 55.686 56.8123Z" fill="white"/>
<path d="M56.8602 47.3349C56.9708 46.6569 56.5101 46.0177 55.8313 45.9072C55.1525 45.7968 54.5126 46.257 54.402 46.935C54.2915 47.6131 54.7521 48.2523 55.431 48.3627C56.1098 48.4732 56.7497 48.013 56.8602 47.3349Z" fill="white"/>
<path d="M81.0646 19.9178C80.8846 19.9178 80.712 19.8466 80.5845 19.7192C80.4569 19.5919 80.3857 19.4195 80.3857 19.2397C80.3857 19.0598 80.4569 18.8875 80.5845 18.7601C80.712 18.6327 80.8846 18.5615 81.0646 18.5615C81.2446 18.5615 81.4172 18.6327 81.5447 18.7601C81.6722 18.8875 81.7435 19.0598 81.7435 19.2397C81.7435 19.4195 81.6722 19.5919 81.5447 19.7192C81.4172 19.8466 81.2446 19.9178 81.0646 19.9178Z" fill="white"/>
<path d="M81.0646 39.386C80.8846 39.386 80.712 39.3148 80.5845 39.1874C80.4569 39.0601 80.3857 38.8877 80.3857 38.7079C80.3857 38.528 80.4569 38.3557 80.5845 38.2283C80.712 38.1009 80.8846 38.0297 81.0646 38.0297C81.2446 38.0297 81.4172 38.1009 81.5447 38.2283C81.6722 38.3557 81.7435 38.528 81.7435 38.7079C81.7435 38.8877 81.6722 39.0601 81.5447 39.1874C81.4172 39.3148 81.2446 39.386 81.0646 39.386Z" fill="white"/>
<path d="M81.0083 29.7081C80.6332 29.7081 80.3294 29.4047 80.3294 29.03C80.3294 28.6553 80.6332 28.3518 81.0083 28.3518C81.3834 28.3518 81.6872 28.6553 81.6872 29.03C81.6872 29.4047 81.3834 29.7081 81.0083 29.7081Z" fill="white"/>
<path d="M64.1255 11.4876C63.7504 11.4876 63.4466 11.1841 63.4466 10.8094C63.4466 10.4347 63.7504 10.1313 64.1255 10.1313C64.5006 10.1313 64.8044 10.4347 64.8044 10.8094C64.8044 11.1841 64.5006 11.4876 64.1255 11.4876Z" fill="white"/>
<path d="M64.1818 3.05735C64.0017 3.05735 63.8292 2.98616 63.7017 2.85877C63.5741 2.73138 63.5029 2.55903 63.5029 2.37918C63.5029 2.19934 63.5741 2.02699 63.7017 1.8996C63.8292 1.77221 64.0017 1.70102 64.1818 1.70102C64.3618 1.70102 64.5344 1.77221 64.6619 1.8996C64.7894 2.02699 64.8607 2.19934 64.8607 2.37918C64.8607 2.55903 64.7894 2.73138 64.6619 2.85877C64.5344 2.98616 64.3618 3.05735 64.1818 3.05735Z" fill="white"/>
<path d="M64.1818 56.2465C64.0017 56.2465 63.8292 56.1753 63.7017 56.0479C63.5741 55.9205 63.5029 55.7482 63.5029 55.5683C63.5029 55.3885 63.5741 55.2161 63.7017 55.0887C63.8292 54.9614 64.0017 54.8902 64.1818 54.8902C64.3618 54.8902 64.5344 54.9614 64.6619 55.0887C64.7894 55.2161 64.8607 55.3885 64.8607 55.5683C64.8607 55.7482 64.7894 55.9205 64.6619 56.0479C64.5344 56.1753 64.3618 56.2465 64.1818 56.2465Z" fill="white"/>
<path d="M64.1255 47.8163C63.7504 47.8163 63.4466 47.5128 63.4466 47.1381C63.4466 46.7634 63.7504 46.4599 64.1255 46.4599C64.5006 46.4599 64.8044 46.7634 64.8044 47.1381C64.8044 47.5128 64.5006 47.8163 64.1255 47.8163Z" fill="white"/>
<path d="M100.175 16.8192V28.7003H98.0786V20.9707L95.2767 28.7003H93.6901L90.8731 20.9707V28.7003H88.7764V16.8192H91.1582L94.4852 25.6541L97.8123 16.8192H100.179H100.175Z" fill="white"/>
<path d="M109.902 24.7024H103.833C103.881 25.3843 104.091 25.9164 104.463 26.3023C104.834 26.6882 105.288 26.8793 105.828 26.8793C106.608 26.8793 107.163 26.5009 107.49 25.7403H109.751C109.511 26.647 109.054 27.3964 108.371 27.9771C107.692 28.5616 106.856 28.8539 105.869 28.8539C105.07 28.8539 104.354 28.6515 103.72 28.2506C103.086 27.8497 102.591 27.2765 102.235 26.5383C101.878 25.8002 101.702 24.9497 101.702 23.9831C101.702 23.0164 101.878 22.1509 102.227 21.4128C102.576 20.6747 103.067 20.1089 103.698 19.7117C104.328 19.3146 105.052 19.116 105.869 19.116C106.687 19.116 107.366 19.3108 107.989 19.693C108.611 20.0789 109.099 20.6259 109.444 21.3341C109.789 22.0422 109.962 22.859 109.962 23.777C109.962 24.1179 109.943 24.4252 109.902 24.6949V24.7024ZM107.79 23.1026C107.778 22.4881 107.583 21.9973 107.205 21.6301C106.826 21.2629 106.361 21.0756 105.809 21.0756C105.288 21.0756 104.853 21.2554 104.496 21.6113C104.14 21.9673 103.926 22.4656 103.844 23.1026H107.786H107.79Z" fill="white"/>
<path d="M111.454 21.4165C111.788 20.6784 112.246 20.1127 112.827 19.7155C113.405 19.3183 114.05 19.1198 114.759 19.1198C115.299 19.1198 115.813 19.2546 116.304 19.5207C116.792 19.7867 117.182 20.1426 117.475 20.5847V16.1074H119.601V28.704H117.475V27.3065C117.216 27.7711 116.848 28.1457 116.379 28.4305C115.91 28.7152 115.367 28.8576 114.748 28.8576C114.05 28.8576 113.409 28.6553 112.831 28.2431C112.253 27.8347 111.796 27.2577 111.458 26.5159C111.124 25.774 110.956 24.9198 110.956 23.9531C110.956 22.9864 111.124 22.1546 111.458 21.4165H111.454ZM117.186 22.4993C116.987 22.0835 116.717 21.7687 116.376 21.5477C116.034 21.3266 115.67 21.2142 115.28 21.2142C114.89 21.2142 114.53 21.3229 114.2 21.5364C113.87 21.7537 113.604 22.0685 113.397 22.4806C113.191 22.8965 113.09 23.3873 113.09 23.9531C113.09 24.5189 113.191 25.0172 113.397 25.4443C113.604 25.8714 113.87 26.1974 114.208 26.4222C114.541 26.6508 114.898 26.7632 115.28 26.7632C115.663 26.7632 116.034 26.6508 116.376 26.4297C116.713 26.2087 116.983 25.8902 117.186 25.478C117.385 25.0659 117.486 24.5676 117.486 23.9868C117.486 23.4061 117.385 22.9115 117.186 22.4956V22.4993Z" fill="white"/>
<path d="M121.792 17.7484C121.548 17.4824 121.424 17.149 121.424 16.7518C121.424 16.3546 121.548 16.0212 121.792 15.7552C122.036 15.4891 122.343 15.3542 122.715 15.3542C123.086 15.3542 123.39 15.4891 123.637 15.7552C123.881 16.0212 124.005 16.3546 124.005 16.7518C124.005 17.149 123.881 17.4824 123.637 17.7484C123.393 18.0145 123.086 18.1493 122.715 18.1493C122.343 18.1493 122.039 18.0145 121.792 17.7484ZM123.746 19.2734V28.704H121.649V19.2734H123.746Z" fill="white"/>
<path d="M125.937 21.4915C126.278 20.7721 126.747 20.2101 127.354 19.8129C127.958 19.4157 128.652 19.2172 129.429 19.2172C130.438 19.2172 131.27 19.4944 131.923 20.0527C132.576 20.6072 133.011 21.379 133.221 22.3682H131.751C131.612 21.8024 131.338 21.3528 130.933 21.0231C130.528 20.6934 130.025 20.5285 129.425 20.5285C128.645 20.5285 128.015 20.832 127.538 21.439C127.058 22.046 126.818 22.9077 126.818 24.0168C126.818 25.1258 127.058 26.0101 127.538 26.6208C128.018 27.2353 128.649 27.5387 129.425 27.5387C130.025 27.5387 130.524 27.3814 130.925 27.0629C131.323 26.7444 131.601 26.2911 131.751 25.7028H133.221C133 26.6545 132.561 27.4188 131.901 27.9921C131.24 28.5654 130.415 28.8501 129.429 28.8501C128.649 28.8501 127.958 28.6515 127.354 28.2544C126.751 27.8572 126.278 27.2952 125.937 26.5683C125.595 25.8415 125.427 24.9909 125.427 24.013C125.427 23.0351 125.595 22.2071 125.937 21.484V21.4915Z" fill="white"/>
<path d="M136.525 28.2581C135.899 27.861 135.411 27.2952 135.055 26.5646C134.699 25.834 134.522 24.9834 134.522 24.0205C134.522 23.0576 134.706 22.2258 135.07 21.4915C135.434 20.7608 135.933 20.1988 136.563 19.8054C137.193 19.412 137.898 19.2172 138.675 19.2172C139.451 19.2172 140.16 19.412 140.786 19.8054C141.417 20.1951 141.912 20.7571 142.279 21.484C142.643 22.2108 142.827 23.0576 142.827 24.0205C142.827 24.9834 142.639 25.834 142.264 26.5646C141.889 27.2952 141.383 27.861 140.741 28.2581C140.104 28.6553 139.391 28.8539 138.615 28.8539C137.838 28.8539 137.148 28.6553 136.525 28.2581ZM139.995 27.1004C140.426 26.8381 140.771 26.4484 141.038 25.9239C141.304 25.4031 141.435 24.7661 141.435 24.0168C141.435 23.2674 141.304 22.6305 141.045 22.1097C140.786 21.5889 140.445 21.1992 140.025 20.9444C139.605 20.6896 139.151 20.5623 138.66 20.5623C138.168 20.5623 137.703 20.6896 137.287 20.9444C136.871 21.1992 136.54 21.5889 136.289 22.1097C136.038 22.6305 135.914 23.2674 135.914 24.0168C135.914 24.7661 136.038 25.4181 136.282 25.9389C136.525 26.4597 136.852 26.8493 137.264 27.1041C137.673 27.3589 138.123 27.4863 138.615 27.4863C139.106 27.4863 139.564 27.3551 139.995 27.0966V27.1004Z" fill="white"/>
<path d="M151.053 20.2325C151.672 20.9182 151.983 21.9111 151.983 23.2037V28.704H150.633V23.4248C150.633 22.4956 150.426 21.7837 150.017 21.2891C149.609 20.7946 149.05 20.5473 148.341 20.5473C147.632 20.5473 147.05 20.8021 146.627 21.3116C146.203 21.8212 145.989 22.5668 145.989 23.5409V28.7002H144.624V19.3708H145.989V20.6971C146.259 20.2213 146.627 19.8504 147.092 19.5918C147.557 19.3296 148.067 19.2022 148.63 19.2022C149.627 19.2022 150.438 19.5469 151.056 20.2325H151.053Z" fill="white"/>
<path d="M160.644 20.2325C161.263 20.9182 161.574 21.9111 161.574 23.2037V28.704H160.224V23.4248C160.224 22.4956 160.017 21.7837 159.609 21.2891C159.2 20.7946 158.641 20.5473 157.932 20.5473C157.223 20.5473 156.642 20.8021 156.218 21.3116C155.794 21.8212 155.58 22.5668 155.58 23.5409V28.7002H154.215V19.3708H155.58V20.6971C155.85 20.2213 156.218 19.8504 156.683 19.5918C157.148 19.3296 157.658 19.2022 158.221 19.2022C159.218 19.2022 160.029 19.5469 160.648 20.2325H160.644Z" fill="white"/>
<path d="M171.255 24.6163H164.691C164.74 25.5342 165.017 26.2536 165.524 26.7707C166.026 27.2877 166.641 27.5462 167.358 27.5462C167.947 27.5462 168.438 27.3889 168.836 27.0779C169.23 26.7669 169.507 26.3473 169.668 25.8265H171.139C170.917 26.722 170.479 27.4526 169.818 28.0146C169.158 28.5766 168.341 28.8576 167.362 28.8576C166.581 28.8576 165.884 28.659 165.272 28.2619C164.657 27.8647 164.177 27.299 163.825 26.5683C163.476 25.8377 163.299 24.9872 163.299 24.0243C163.299 23.0614 163.468 22.2146 163.81 21.4877C164.151 20.7608 164.627 20.2026 165.242 19.8092C165.858 19.4157 166.563 19.2209 167.362 19.2209C168.161 19.2209 168.832 19.4157 169.428 19.7979C170.029 20.1838 170.49 20.7159 170.816 21.3903C171.143 22.0647 171.304 22.8291 171.304 23.6796C171.304 23.9756 171.289 24.2865 171.259 24.6163H171.255ZM169.548 21.8324C169.32 21.4053 169.005 21.0831 168.611 20.862C168.217 20.6409 167.778 20.5285 167.298 20.5285C166.608 20.5285 166.023 20.7796 165.539 21.2779C165.055 21.7762 164.777 22.4694 164.706 23.3536H169.89C169.89 22.7654 169.773 22.2558 169.545 21.8287L169.548 21.8324Z" fill="white"/>
<path d="M173.097 21.4915C173.438 20.7721 173.907 20.2101 174.515 19.8129C175.119 19.4157 175.812 19.2172 176.589 19.2172C177.598 19.2172 178.431 19.4944 179.083 20.0527C179.736 20.6072 180.171 21.379 180.381 22.3682H178.911C178.772 21.8024 178.498 21.3528 178.093 21.0231C177.688 20.6934 177.185 20.5285 176.585 20.5285C175.805 20.5285 175.175 20.832 174.698 21.439C174.218 22.046 173.978 22.9077 173.978 24.0168C173.978 25.1258 174.218 26.0101 174.698 26.6208C175.179 27.2353 175.809 27.5387 176.585 27.5387C177.185 27.5387 177.684 27.3814 178.086 27.0629C178.483 26.7444 178.761 26.2911 178.911 25.7028H180.381C180.16 26.6545 179.721 27.4188 179.061 27.9921C178.401 28.5654 177.575 28.8501 176.589 28.8501C175.809 28.8501 175.119 28.6515 174.515 28.2544C173.911 27.8572 173.438 27.2952 173.097 26.5683C172.755 25.8415 172.587 24.9909 172.587 24.013C172.587 23.0351 172.755 22.2071 173.097 21.484V21.4915Z" fill="white"/>
<path d="M183.858 20.6484V26.1487C183.858 26.602 183.944 26.9243 184.113 27.1116C184.282 27.2989 184.578 27.3926 184.998 27.3926H186.004V28.704H184.773C184.016 28.704 183.446 28.5054 183.067 28.1082C182.688 27.7111 182.497 27.0591 182.497 26.1487V20.6484H181.431V19.3708H182.497V17.0215H183.862V19.3708H186.004V20.6484H183.862H183.858Z" fill="white"/>
<path d="M89.0465 36.0364C89.2415 35.6543 89.5078 35.3583 89.8417 35.1409C90.1793 34.9274 90.5506 34.8187 90.9594 34.8187C91.4396 34.8187 91.8634 34.9461 92.2197 35.2046C92.5798 35.4632 92.8424 35.8266 93.0074 36.2987H92.3173C92.1935 36.0027 92.0172 35.7779 91.7884 35.6205C91.5596 35.4632 91.282 35.3807 90.9594 35.3807C90.6369 35.3807 90.3743 35.4594 90.1305 35.6205C89.8867 35.7816 89.6916 36.0065 89.5529 36.295C89.4141 36.5872 89.3428 36.9282 89.3428 37.3216C89.3428 37.715 89.4141 38.0484 89.5529 38.3407C89.6916 38.6329 89.8829 38.8577 90.1305 39.0189C90.378 39.18 90.6519 39.2586 90.9594 39.2586C91.267 39.2586 91.5558 39.18 91.7884 39.0226C92.0172 38.8652 92.1935 38.6404 92.3173 38.3444H93.0074C92.8424 38.8128 92.5798 39.1725 92.2197 39.4273C91.8597 39.682 91.4396 39.8094 90.9594 39.8094C90.5506 39.8094 90.1755 39.7045 89.8417 39.4909C89.5041 39.2774 89.2415 38.9814 89.0465 38.603C88.8514 38.2245 88.7539 37.7974 88.7539 37.3216C88.7539 36.8457 88.8514 36.4148 89.0465 36.0364Z" fill="white"/>
<path d="M94.4966 39.5846C94.234 39.4198 94.024 39.1875 93.8739 38.8877C93.7239 38.588 93.6489 38.2358 93.6489 37.8386C93.6489 37.4415 93.7276 37.1005 93.8814 36.797C94.0352 36.4973 94.2453 36.265 94.5116 36.1039C94.7779 35.9428 95.0742 35.8603 95.4043 35.8603C95.7344 35.8603 96.0307 35.9428 96.297 36.1039C96.5633 36.265 96.7734 36.4935 96.9272 36.7933C97.0809 37.093 97.1597 37.4415 97.1597 37.8386C97.1597 38.2358 97.0809 38.5842 96.9234 38.8877C96.7659 39.1875 96.5521 39.4235 96.2782 39.5846C96.0044 39.7457 95.7081 39.8282 95.378 39.8282C95.048 39.8282 94.7591 39.7457 94.4928 39.5846H94.4966ZM95.9632 39.1088C96.1432 39.0001 96.2933 38.839 96.402 38.6254C96.5146 38.4119 96.5708 38.1496 96.5708 37.8386C96.5708 37.5276 96.5146 37.2691 96.4058 37.0518C96.297 36.8382 96.1507 36.6771 95.9744 36.5722C95.7981 36.4673 95.6031 36.4148 95.3968 36.4148C95.1905 36.4148 94.9917 36.4673 94.8154 36.5722C94.6391 36.6771 94.5003 36.8382 94.3953 37.0518C94.2903 37.2654 94.2378 37.5276 94.2378 37.8386C94.2378 38.1496 94.2903 38.4156 94.3915 38.6292C94.4966 38.8428 94.6354 39.0039 94.8079 39.1088C94.9804 39.2137 95.1717 39.2661 95.378 39.2661C95.5843 39.2661 95.7794 39.2137 95.9594 39.105L95.9632 39.1088Z" fill="white"/>
<path d="M100.644 36.2799C100.907 36.561 101.038 36.9693 101.038 37.5014V39.7644H100.468V37.5913C100.468 37.2091 100.382 36.9169 100.209 36.7108C100.037 36.5048 99.8003 36.4073 99.5002 36.4073C99.2002 36.4073 98.9526 36.5122 98.7726 36.7221C98.5925 36.9319 98.5025 37.2391 98.5025 37.64V39.7644H97.9249V35.924H98.5025V36.471C98.615 36.2762 98.7726 36.1226 98.9676 36.0139C99.1627 35.9053 99.3802 35.8528 99.6165 35.8528C100.04 35.8528 100.382 35.9952 100.644 36.2762V36.2799Z" fill="white"/>
<path d="M104.703 36.2799C104.965 36.561 105.097 36.9693 105.097 37.5014V39.7644H104.526V37.5913C104.526 37.2091 104.44 36.9169 104.268 36.7108C104.095 36.5048 103.859 36.4073 103.559 36.4073C103.259 36.4073 103.011 36.5122 102.831 36.7221C102.651 36.9319 102.561 37.2391 102.561 37.64V39.7644H101.983V35.924H102.561V36.471C102.673 36.2762 102.831 36.1226 103.026 36.0139C103.221 35.9053 103.439 35.8528 103.675 35.8528C104.099 35.8528 104.44 35.9952 104.703 36.2762V36.2799Z" fill="white"/>
<path d="M109.189 38.0859H106.413C106.436 38.4643 106.552 38.7603 106.766 38.9739C106.98 39.1875 107.238 39.2924 107.542 39.2924C107.794 39.2924 108 39.2287 108.169 39.1013C108.337 38.9739 108.454 38.8015 108.521 38.5842H109.144C109.05 38.9552 108.866 39.2549 108.585 39.4835C108.307 39.7158 107.959 39.8319 107.546 39.8319C107.216 39.8319 106.923 39.7495 106.661 39.5884C106.402 39.4235 106.196 39.1912 106.049 38.8915C105.903 38.5917 105.828 38.2395 105.828 37.8424C105.828 37.4452 105.899 37.0968 106.042 36.797C106.184 36.4973 106.387 36.2687 106.646 36.1076C106.905 35.9465 107.205 35.8641 107.542 35.8641C107.88 35.8641 108.165 35.9428 108.416 36.1039C108.671 36.2612 108.866 36.4823 109.001 36.7596C109.14 37.0368 109.208 37.3515 109.208 37.7037C109.208 37.8236 109.2 37.9548 109.189 38.0897V38.0859ZM108.465 36.9394C108.367 36.7633 108.236 36.6322 108.067 36.5385C107.899 36.4486 107.715 36.3999 107.512 36.3999C107.22 36.3999 106.972 36.5048 106.766 36.7071C106.559 36.9132 106.443 37.1979 106.413 37.5614H108.607C108.607 37.3178 108.559 37.108 108.461 36.9357L108.465 36.9394Z" fill="white"/>
<path d="M109.969 36.797C110.112 36.501 110.314 36.2687 110.569 36.1076C110.824 35.9428 111.117 35.8603 111.447 35.8603C111.874 35.8603 112.227 35.9765 112.501 36.205C112.778 36.4336 112.962 36.7521 113.049 37.1567H112.426C112.366 36.9244 112.253 36.7371 112.081 36.6022C111.908 36.4673 111.698 36.3999 111.443 36.3999C111.113 36.3999 110.847 36.5235 110.644 36.7745C110.442 37.0256 110.34 37.3778 110.34 37.8349C110.34 38.292 110.442 38.6554 110.644 38.9064C110.847 39.1575 111.113 39.2849 111.443 39.2849C111.698 39.2849 111.908 39.2212 112.077 39.09C112.246 38.9589 112.362 38.7716 112.426 38.528H113.049C112.955 38.9214 112.771 39.2362 112.49 39.4722C112.208 39.7083 111.863 39.8244 111.443 39.8244C111.113 39.8244 110.82 39.742 110.565 39.5809C110.31 39.416 110.112 39.1875 109.965 38.8877C109.823 38.588 109.751 38.2395 109.751 37.8349C109.751 37.4302 109.823 37.0893 109.965 36.7933L109.969 36.797Z" fill="white"/>
<path d="M114.523 36.4523V38.7154C114.523 38.9027 114.56 39.0338 114.631 39.1125C114.703 39.1912 114.826 39.2287 115.006 39.2287H115.43V39.7682H114.909C114.586 39.7682 114.346 39.6858 114.185 39.5209C114.024 39.3561 113.945 39.09 113.945 38.7154V36.4523H113.495V35.9278H113.945V34.9611H114.523V35.9278H115.43V36.4523H114.523Z" fill="white"/>
<path d="M116.143 35.1747C116.068 35.0922 116.031 34.9873 116.031 34.8674C116.031 34.7475 116.068 34.6426 116.143 34.5602C116.218 34.4778 116.312 34.4328 116.421 34.4328C116.529 34.4328 116.616 34.474 116.691 34.5602C116.766 34.6426 116.803 34.7475 116.803 34.8674C116.803 34.9873 116.766 35.0922 116.691 35.1747C116.616 35.2571 116.526 35.3021 116.421 35.3021C116.316 35.3021 116.218 35.2608 116.143 35.1747ZM116.702 35.924V39.7645H116.124V35.924H116.702Z" fill="white"/>
<path d="M120.404 36.2799C120.667 36.561 120.798 36.9693 120.798 37.5014V39.7644H120.228V37.5913C120.228 37.2091 120.141 36.9169 119.969 36.7108C119.796 36.5048 119.56 36.4073 119.26 36.4073C118.96 36.4073 118.712 36.5122 118.532 36.7221C118.352 36.9319 118.262 37.2391 118.262 37.64V39.7644H117.685V35.924H118.262V36.471C118.375 36.2762 118.532 36.1226 118.727 36.0139C118.922 35.9053 119.14 35.8528 119.376 35.8528C119.8 35.8528 120.141 35.9952 120.404 36.2762V36.2799Z" fill="white"/>
<path d="M123.964 36.0814C124.189 36.2275 124.358 36.4073 124.466 36.6284V35.9278H125.051V39.8544C125.051 40.2066 124.984 40.5175 124.849 40.7911C124.714 41.0646 124.519 41.2781 124.267 41.4318C124.016 41.5854 123.724 41.6641 123.39 41.6641C122.932 41.6641 122.553 41.5442 122.25 41.3081C121.946 41.0683 121.766 40.7461 121.709 40.334H122.28C122.343 40.5663 122.475 40.7573 122.673 40.8997C122.872 41.0421 123.112 41.1133 123.39 41.1133C123.705 41.1133 123.967 41.0046 124.166 40.7836C124.369 40.5625 124.466 40.2553 124.466 39.8581V39.0526C124.354 39.2774 124.185 39.4647 123.96 39.6146C123.735 39.7644 123.472 39.8394 123.172 39.8394C122.872 39.8394 122.583 39.757 122.332 39.5883C122.081 39.4197 121.882 39.1837 121.739 38.8802C121.597 38.5767 121.526 38.232 121.526 37.8424C121.526 37.4527 121.597 37.1042 121.739 36.8082C121.882 36.5122 122.081 36.28 122.332 36.1188C122.583 35.9577 122.865 35.8716 123.172 35.8716C123.48 35.8716 123.735 35.9427 123.96 36.0889L123.964 36.0814ZM124.309 37.0855C124.204 36.8719 124.061 36.7071 123.881 36.5909C123.701 36.4748 123.502 36.4186 123.289 36.4186C123.075 36.4186 122.876 36.4748 122.7 36.5872C122.523 36.6996 122.381 36.8644 122.276 37.078C122.171 37.2916 122.118 37.5464 122.118 37.8349C122.118 38.1234 122.171 38.3856 122.276 38.6029C122.381 38.8203 122.523 38.9851 122.7 39.1013C122.876 39.2174 123.075 39.2736 123.289 39.2736C123.502 39.2736 123.701 39.2174 123.881 39.1013C124.061 38.9851 124.204 38.8203 124.309 38.6029C124.414 38.3856 124.466 38.1309 124.466 37.8424C124.466 37.5539 124.414 37.2991 124.309 37.0855Z" fill="white"/>
<path d="M130.441 34.8824V35.3995H129.237V39.7682H128.66V35.3995H127.448V34.8824H130.441Z" fill="white"/>
<path d="M133.585 36.0402C133.795 36.1638 133.964 36.3511 134.084 36.5984C134.204 36.8457 134.264 37.1492 134.264 37.5014V39.7644H133.694V37.5913C133.694 37.2091 133.607 36.9169 133.435 36.7108C133.262 36.5048 133.026 36.4073 132.726 36.4073C132.426 36.4073 132.178 36.5122 131.998 36.7221C131.818 36.9319 131.728 37.2391 131.728 37.64V39.7644H131.15V34.5752H131.728V36.4673C131.841 36.2725 131.998 36.1188 132.201 36.0102C132.403 35.9015 132.628 35.8491 132.876 35.8491C133.138 35.8491 133.375 35.9128 133.585 36.0364V36.0402Z" fill="white"/>
<path d="M138.36 38.0859H135.584C135.606 38.4643 135.723 38.7603 135.937 38.9739C136.15 39.1875 136.409 39.2924 136.713 39.2924C136.964 39.2924 137.171 39.2287 137.339 39.1013C137.508 38.9739 137.624 38.8015 137.692 38.5842H138.315C138.221 38.9552 138.037 39.2549 137.756 39.4835C137.478 39.7158 137.129 39.8319 136.717 39.8319C136.387 39.8319 136.094 39.7495 135.832 39.5884C135.573 39.4235 135.366 39.1912 135.22 38.8915C135.074 38.5917 134.999 38.2395 134.999 37.8424C134.999 37.4452 135.07 37.0968 135.213 36.797C135.355 36.4973 135.558 36.2687 135.817 36.1076C136.075 35.9465 136.375 35.8641 136.713 35.8641C137.051 35.8641 137.336 35.9428 137.587 36.1039C137.842 36.2612 138.037 36.4823 138.172 36.7596C138.311 37.0368 138.378 37.3515 138.378 37.7037C138.378 37.8236 138.371 37.9548 138.36 38.0897V38.0859ZM137.636 36.9394C137.538 36.7633 137.407 36.6322 137.238 36.5385C137.069 36.4486 136.886 36.3999 136.683 36.3999C136.39 36.3999 136.143 36.5048 135.937 36.7071C135.73 36.9132 135.614 37.1979 135.584 37.5614H137.778C137.778 37.3178 137.729 37.108 137.632 36.9357L137.636 36.9394Z" fill="white"/>
<path d="M145.314 34.9161V39.7682H144.736V36.1526L143.277 39.7682H142.872L141.409 36.1451V39.7682H140.831V34.9161H141.454L143.078 38.9252L144.702 34.9161H145.318H145.314Z" fill="white"/>
<path d="M149.44 38.0859H146.664C146.687 38.4643 146.803 38.7603 147.017 38.9739C147.231 39.1875 147.489 39.2924 147.793 39.2924C148.045 39.2924 148.251 39.2287 148.42 39.1013C148.588 38.9739 148.705 38.8015 148.772 38.5842H149.395C149.301 38.9552 149.117 39.2549 148.836 39.4835C148.558 39.7158 148.21 39.8319 147.797 39.8319C147.467 39.8319 147.174 39.7495 146.912 39.5884C146.653 39.4235 146.447 39.1912 146.3 38.8915C146.154 38.5917 146.079 38.2395 146.079 37.8424C146.079 37.4452 146.15 37.0968 146.293 36.797C146.435 36.4973 146.638 36.2687 146.897 36.1076C147.156 35.9465 147.456 35.8641 147.793 35.8641C148.131 35.8641 148.416 35.9428 148.667 36.1039C148.922 36.2612 149.117 36.4823 149.252 36.7596C149.391 37.0368 149.459 37.3515 149.459 37.7037C149.459 37.8236 149.451 37.9548 149.44 38.0897V38.0859ZM148.716 36.9394C148.618 36.7633 148.487 36.6322 148.318 36.5385C148.15 36.4486 147.966 36.3999 147.763 36.3999C147.471 36.3999 147.223 36.5048 147.017 36.7071C146.81 36.9132 146.694 37.1979 146.664 37.5614H148.858C148.858 37.3178 148.81 37.108 148.712 36.9357L148.716 36.9394Z" fill="white"/>
<path d="M150.22 36.797C150.363 36.501 150.561 36.2687 150.813 36.1076C151.064 35.9465 151.345 35.8603 151.66 35.8603C151.93 35.8603 152.182 35.9277 152.414 36.0664C152.647 36.205 152.823 36.3849 152.947 36.6097V34.5752H153.532V39.7644H152.947V39.0413C152.834 39.2699 152.666 39.4572 152.441 39.6071C152.216 39.7532 151.953 39.8281 151.653 39.8281C151.353 39.8281 151.064 39.7457 150.813 39.5771C150.561 39.4085 150.363 39.1725 150.22 38.869C150.077 38.5655 150.006 38.2208 150.006 37.8311C150.006 37.4414 150.077 37.093 150.22 36.797ZM152.789 37.0818C152.684 36.8682 152.542 36.7033 152.362 36.5872C152.182 36.471 151.983 36.4148 151.769 36.4148C151.555 36.4148 151.357 36.471 151.18 36.5834C151.004 36.6958 150.861 36.8607 150.756 37.0743C150.651 37.2878 150.599 37.5426 150.599 37.8311C150.599 38.1196 150.651 38.3819 150.756 38.5992C150.861 38.8165 151.004 38.9814 151.18 39.0975C151.357 39.2137 151.555 39.2699 151.769 39.2699C151.983 39.2699 152.182 39.2137 152.362 39.0975C152.542 38.9814 152.684 38.8165 152.789 38.5992C152.894 38.3819 152.947 38.1271 152.947 37.8386C152.947 37.5501 152.894 37.2953 152.789 37.0818Z" fill="white"/>
<path d="M154.526 35.1747C154.451 35.0922 154.414 34.9873 154.414 34.8674C154.414 34.7475 154.451 34.6426 154.526 34.5602C154.601 34.4778 154.695 34.4328 154.804 34.4328C154.912 34.4328 154.999 34.474 155.074 34.5602C155.149 34.6426 155.186 34.7475 155.186 34.8674C155.186 34.9873 155.149 35.0922 155.074 35.1747C154.999 35.2571 154.909 35.3021 154.804 35.3021C154.699 35.3021 154.601 35.2608 154.526 35.1747ZM155.085 35.924V39.7645H154.507V35.924H155.085Z" fill="white"/>
<path d="M156.068 36.797C156.21 36.501 156.413 36.2687 156.668 36.1076C156.923 35.9428 157.215 35.8603 157.546 35.8603C157.973 35.8603 158.326 35.9765 158.6 36.205C158.877 36.4336 159.061 36.7521 159.147 37.1567H158.525C158.465 36.9244 158.352 36.7371 158.179 36.6022C158.007 36.4673 157.797 36.3999 157.542 36.3999C157.212 36.3999 156.945 36.5235 156.743 36.7745C156.54 37.0256 156.439 37.3778 156.439 37.8349C156.439 38.292 156.54 38.6554 156.743 38.9064C156.945 39.1575 157.212 39.2849 157.542 39.2849C157.797 39.2849 158.007 39.2212 158.176 39.09C158.345 38.9589 158.461 38.7716 158.525 38.528H159.147C159.053 38.9214 158.87 39.2362 158.588 39.4722C158.307 39.7083 157.962 39.8244 157.542 39.8244C157.212 39.8244 156.919 39.742 156.664 39.5809C156.409 39.416 156.21 39.1875 156.064 38.8877C155.921 38.588 155.85 38.2395 155.85 37.8349C155.85 37.4302 155.921 37.0893 156.064 36.7933L156.068 36.797Z" fill="white"/>
<path d="M159.916 36.797C160.059 36.501 160.257 36.2687 160.509 36.1076C160.76 35.9465 161.041 35.8603 161.349 35.8603C161.657 35.8603 161.919 35.9315 162.14 36.0776C162.365 36.2238 162.531 36.4036 162.639 36.6247V35.924H163.224V39.7645H162.639V39.0488C162.527 39.2736 162.354 39.4572 162.129 39.6071C161.904 39.7532 161.642 39.8282 161.341 39.8282C161.041 39.8282 160.753 39.7457 160.505 39.5771C160.254 39.4085 160.059 39.1725 159.916 38.869C159.774 38.5655 159.702 38.2208 159.702 37.8311C159.702 37.4415 159.774 37.093 159.916 36.797ZM162.486 37.0818C162.38 36.8682 162.238 36.7033 162.058 36.5872C161.878 36.471 161.679 36.4148 161.465 36.4148C161.251 36.4148 161.053 36.471 160.876 36.5834C160.7 36.6959 160.558 36.8607 160.453 37.0743C160.347 37.2878 160.295 37.5426 160.295 37.8311C160.295 38.1196 160.347 38.3819 160.453 38.5992C160.558 38.8165 160.7 38.9814 160.876 39.0975C161.053 39.2137 161.251 39.2699 161.465 39.2699C161.679 39.2699 161.878 39.2137 162.058 39.0975C162.238 38.9814 162.38 38.8165 162.486 38.5992C162.591 38.3819 162.643 38.1271 162.643 37.8386C162.643 37.5501 162.591 37.2953 162.486 37.0818Z" fill="white"/>
<path d="M164.777 34.5789V39.7682H164.2V34.5789H164.777Z" fill="white"/>
<path d="M173.007 34.8824L171.728 39.7682H171.083L170.055 35.8341L168.99 39.7682L168.348 39.7757L167.11 34.8824H167.726L168.689 39.0263L169.755 34.8824H170.4L171.413 39.0114L172.384 34.8824H173.007Z" fill="white"/>
<path d="M174.271 39.5846C174.008 39.4198 173.798 39.1875 173.648 38.8877C173.498 38.588 173.423 38.2358 173.423 37.8386C173.423 37.4415 173.502 37.1005 173.656 36.797C173.809 36.4973 174.02 36.265 174.286 36.1039C174.552 35.9428 174.848 35.8603 175.179 35.8603C175.509 35.8603 175.805 35.9428 176.071 36.1039C176.338 36.265 176.548 36.4935 176.701 36.7933C176.855 37.093 176.934 37.4415 176.934 37.8386C176.934 38.2358 176.855 38.5842 176.698 38.8877C176.54 39.1875 176.326 39.4235 176.053 39.5846C175.779 39.7457 175.482 39.8282 175.152 39.8282C174.822 39.8282 174.533 39.7457 174.267 39.5846H174.271ZM175.737 39.1088C175.918 39.0001 176.068 38.839 176.176 38.6254C176.289 38.4119 176.345 38.1496 176.345 37.8386C176.345 37.5276 176.289 37.2691 176.18 37.0518C176.071 36.8382 175.925 36.6771 175.749 36.5722C175.572 36.4673 175.377 36.4148 175.171 36.4148C174.965 36.4148 174.766 36.4673 174.59 36.5722C174.413 36.6771 174.275 36.8382 174.17 37.0518C174.065 37.2654 174.012 37.5276 174.012 37.8386C174.012 38.1496 174.065 38.4156 174.166 38.6292C174.271 38.8428 174.41 39.0039 174.582 39.1088C174.755 39.2137 174.946 39.2661 175.152 39.2661C175.359 39.2661 175.554 39.2137 175.734 39.105L175.737 39.1088Z" fill="white"/>
<path d="M178.708 36.0364C178.896 35.9165 179.124 35.8528 179.395 35.8528V36.5122H179.241C178.596 36.5122 178.269 36.9019 178.269 37.6775V39.7682H177.692V35.9277H178.269V36.5535C178.371 36.3324 178.517 36.1638 178.704 36.0402L178.708 36.0364Z" fill="white"/>
<path d="M180.64 34.5789V39.7682H180.062V34.5789H180.64Z" fill="white"/>
<path d="M181.623 36.797C181.765 36.501 181.964 36.2687 182.215 36.1076C182.467 35.9465 182.748 35.8603 183.063 35.8603C183.333 35.8603 183.584 35.9277 183.817 36.0664C184.049 36.205 184.226 36.3849 184.35 36.6097V34.5752H184.935V39.7644H184.35V39.0413C184.237 39.2699 184.068 39.4572 183.843 39.6071C183.618 39.7532 183.356 39.8281 183.055 39.8281C182.755 39.8281 182.467 39.7457 182.215 39.5771C181.964 39.4085 181.765 39.1725 181.623 38.869C181.48 38.5655 181.409 38.2208 181.409 37.8311C181.409 37.4414 181.48 37.093 181.623 36.797ZM184.192 37.0818C184.087 36.8682 183.944 36.7033 183.764 36.5872C183.584 36.471 183.386 36.4148 183.172 36.4148C182.958 36.4148 182.759 36.471 182.583 36.5834C182.407 36.6958 182.264 36.8607 182.159 37.0743C182.054 37.2878 182.001 37.5426 182.001 37.8311C182.001 38.1196 182.054 38.3819 182.159 38.5992C182.264 38.8165 182.407 38.9814 182.583 39.0975C182.759 39.2137 182.958 39.2699 183.172 39.2699C183.386 39.2699 183.584 39.2137 183.764 39.0975C183.944 38.9814 184.087 38.8165 184.192 38.5992C184.297 38.3819 184.35 38.1271 184.35 37.8386C184.35 37.5501 184.297 37.2953 184.192 37.0818Z" fill="white"/>
</svg>
