<svg width="284" height="88" viewBox="0 0 284 88" fill="none" xmlns="http://www.w3.org/2000/svg">
<path d="M84.7269 32.7973C85.6799 32.7973 86.6124 32.4129 87.2876 31.7403C87.9629 31.0677 88.3487 30.1389 88.3487 29.1897C88.3487 28.2405 87.9629 27.3116 87.2876 26.639C86.6124 25.9664 85.6799 25.5821 84.7269 25.5821C83.774 25.5821 82.8415 25.9664 82.1663 26.639C81.491 27.3116 81.1052 28.2405 81.1052 29.1897C81.1052 30.1389 81.491 31.0677 82.1663 31.7403C82.8415 32.4129 83.774 32.7973 84.7269 32.7973Z" fill="#35B3E9"/>
<path d="M74.4449 31.8253C75.8582 30.4176 75.8582 28.1353 74.4449 26.7275C73.0317 25.3198 70.7404 25.3198 69.3271 26.7275C67.9139 28.1352 67.9139 30.4176 69.3271 31.8253C70.7404 33.233 73.0317 33.233 74.4449 31.8253Z" fill="#35B3E9"/>
<path d="M59.0414 25.585C58.0885 25.585 57.156 25.9694 56.4807 26.642C55.8055 27.3146 55.4196 28.2434 55.4196 29.1926C55.4196 30.1418 55.8055 31.0706 56.4807 31.7432C57.156 32.4158 58.0885 32.8002 59.0414 32.8002C59.9943 32.8002 60.9268 32.4158 61.6021 31.7432C62.2773 31.0706 62.6632 30.1418 62.6632 29.1926C62.6632 28.2434 62.2773 27.3146 61.6021 26.642C60.9268 25.9694 59.9943 25.585 59.0414 25.585Z" fill="#35B3E9"/>
<path d="M44.1305 7.29669C46.1291 7.29669 47.7493 5.68283 47.7493 3.69202C47.7493 1.70122 46.1291 0.0873489 44.1305 0.0873489C42.1319 0.0873489 40.5117 1.70122 40.5117 3.69202C40.5117 5.68283 42.1319 7.29669 44.1305 7.29669Z" fill="#35B3E9"/>
<path d="M29.2196 0C28.2667 0 27.3342 0.384343 26.659 1.05694C25.9837 1.72954 25.5979 2.65837 25.5979 3.60758C25.5979 4.55679 25.9837 5.48562 26.659 6.15822C27.3342 6.83082 28.2667 7.21517 29.2196 7.21517C30.1726 7.21517 31.105 6.83082 31.7803 6.15822C32.4555 5.48562 32.8414 4.55679 32.8414 3.60758C32.8414 2.65837 32.4555 1.72954 31.7803 1.05694C31.105 0.384343 30.1726 0 29.2196 0Z" fill="#35B3E9"/>
<path d="M29.1319 20.0033C31.1305 20.0033 32.7508 18.3894 32.7508 16.3986C32.7508 14.4078 31.1305 12.794 29.1319 12.794C27.1333 12.794 25.5131 14.4078 25.5131 16.3986C25.5131 18.3894 27.1333 20.0033 29.1319 20.0033Z" fill="#35B3E9"/>
<path d="M29.2196 25.585C28.2667 25.585 27.3342 25.9694 26.659 26.642C25.9837 27.3146 25.5979 28.2434 25.5979 29.1926C25.5979 30.1418 25.9837 31.0706 26.659 31.7432C27.3342 32.4158 28.2667 32.8002 29.2196 32.8002C30.1726 32.8002 31.105 32.4158 31.7803 31.7432C32.4555 31.0706 32.8414 30.1418 32.8414 29.1926C32.8414 28.2434 32.4555 27.3146 31.7803 26.642C31.105 25.9694 30.1726 25.585 29.2196 25.585Z" fill="#35B3E9"/>
<path d="M16.3754 32.8817C18.374 32.8817 19.9942 31.2678 19.9942 29.277C19.9942 27.2862 18.374 25.6724 16.3754 25.6724C14.3768 25.6724 12.7565 27.2862 12.7565 29.277C12.7565 31.2678 14.3768 32.8817 16.3754 32.8817Z" fill="#35B3E9"/>
<path d="M3.70654 25.585C2.7536 25.585 1.82112 25.9694 1.14587 26.642C0.470631 27.3146 0.0847778 28.2434 0.0847778 29.1926C0.0847778 30.1418 0.470631 31.0706 1.14587 31.7432C1.82112 32.4158 2.7536 32.8002 3.70654 32.8002C4.65948 32.8002 5.59196 32.4158 6.2672 31.7432C6.94244 31.0706 7.3283 30.1418 7.3283 29.1926C7.3283 28.2434 6.94244 27.3146 6.2672 26.642C5.59196 25.9694 4.65948 25.585 3.70654 25.585Z" fill="#35B3E9"/>
<path d="M3.61884 47.6469C5.61746 47.6469 7.23767 46.033 7.23767 44.0422C7.23767 42.0514 5.61746 40.4375 3.61884 40.4375C1.62021 40.4375 0 42.0514 0 44.0422C0 46.033 1.62021 47.6469 3.61884 47.6469Z" fill="#35B3E9"/>
<path d="M3.70654 55.1183C2.7536 55.1183 1.82112 55.5026 1.14587 56.1752C0.470631 56.8478 0.0847778 57.7767 0.0847778 58.7259C0.0847778 59.6751 0.470631 60.6039 1.14587 61.2765C1.82112 61.9491 2.7536 62.3335 3.70654 62.3335C4.65948 62.3335 5.59196 61.9491 6.2672 61.2765C6.94244 60.6039 7.3283 59.6751 7.3283 58.7259C7.3283 57.7767 6.94244 56.8478 6.2672 56.1752C5.59196 55.5026 4.65948 55.1183 3.70654 55.1183Z" fill="#35B3E9"/>
<path d="M16.3754 62.415C18.374 62.415 19.9942 60.8011 19.9942 58.8103C19.9942 56.8195 18.374 55.2056 16.3754 55.2056C14.3768 55.2056 12.7565 56.8195 12.7565 58.8103C12.7565 60.8011 14.3768 62.415 16.3754 62.415Z" fill="#35B3E9"/>
<path d="M29.2196 55.1183C28.2667 55.1183 27.3342 55.5026 26.659 56.1752C25.9837 56.8478 25.5979 57.7767 25.5979 58.7259C25.5979 59.6751 25.9837 60.6039 26.659 61.2765C27.3342 61.9491 28.2667 62.3335 29.2196 62.3335C30.1726 62.3335 31.105 61.9491 31.7803 61.2765C32.4555 60.6039 32.8414 59.6751 32.8414 58.7259C32.8414 57.7767 32.4555 56.8478 31.7803 56.1752C31.105 55.5026 30.1726 55.1183 29.2196 55.1183Z" fill="#35B3E9"/>
<path d="M29.1319 75.1216C31.1305 75.1216 32.7508 73.5077 32.7508 71.5169C32.7508 69.5261 31.1305 67.9123 29.1319 67.9123C27.1333 67.9123 25.5131 69.5261 25.5131 71.5169C25.5131 73.5077 27.1333 75.1216 29.1319 75.1216Z" fill="#35B3E9"/>
<path d="M29.2196 80.7033C28.2667 80.7033 27.3342 81.0876 26.659 81.7602C25.9837 82.4328 25.5979 83.3617 25.5979 84.3109C25.5979 85.2601 25.9837 86.1889 26.659 86.8615C27.3342 87.5341 28.2667 87.9185 29.2196 87.9185C30.1726 87.9185 31.105 87.5341 31.7803 86.8615C32.4555 86.1889 32.8414 85.2601 32.8414 84.3109C32.8414 83.3617 32.4555 82.4328 31.7803 81.7602C31.105 81.0876 30.1726 80.7033 29.2196 80.7033Z" fill="#35B3E9"/>
<path d="M44.1305 88C46.1291 88 47.7493 86.3861 47.7493 84.3953C47.7493 82.4045 46.1291 80.7907 44.1305 80.7907C42.1319 80.7907 40.5117 82.4045 40.5117 84.3953C40.5117 86.3861 42.1319 88 44.1305 88Z" fill="#35B3E9"/>
<path d="M59.0414 55.1183C58.0885 55.1183 57.156 55.5026 56.4807 56.1752C55.8055 56.8478 55.4196 57.7767 55.4196 58.7259C55.4196 59.6751 55.8055 60.6039 56.4807 61.2765C57.156 61.9491 58.0885 62.3335 59.0414 62.3335C59.9943 62.3335 60.9268 61.9491 61.6021 61.2765C62.2773 60.6039 62.6632 59.6751 62.6632 58.7259C62.6632 57.7767 62.2773 56.8478 61.6021 56.1752C60.9268 55.5026 59.9943 55.1183 59.0414 55.1183Z" fill="#35B3E9"/>
<path d="M72.467 62.3706C74.4395 62.0496 75.7772 60.1966 75.4549 58.2318C75.1326 56.2671 73.2724 54.9346 71.2999 55.2556C69.3274 55.5767 67.9897 57.4296 68.312 59.3944C68.6343 61.3591 70.4946 62.6916 72.467 62.3706Z" fill="#35B3E9"/>
<path d="M84.7269 55.1183C83.774 55.1183 82.8415 55.5026 82.1663 56.1752C81.491 56.8478 81.1052 57.7767 81.1052 58.7259C81.1052 59.6751 81.491 60.6039 82.1663 61.2765C82.8415 61.9491 83.774 62.3335 84.7269 62.3335C85.6799 62.3335 86.6124 61.9491 87.2876 61.2765C87.9629 60.6039 88.3487 59.6751 88.3487 58.7259C88.3487 57.7767 87.9629 56.8478 87.2876 56.1752C86.6124 55.5026 85.6799 55.1183 84.7269 55.1183Z" fill="#35B3E9"/>
<path d="M87.9802 45.4474C88.7556 43.6126 87.891 41.499 86.0489 40.7265C84.2069 39.9541 82.085 40.8154 81.3095 42.6502C80.534 44.4851 81.3987 46.5987 83.2407 47.3711C85.0828 48.1435 87.2047 47.2823 87.9802 45.4474Z" fill="#35B3E9"/>
<path d="M58.9566 20.0033C60.9553 20.0033 62.5755 18.3894 62.5755 16.3986C62.5755 14.4078 60.9553 12.794 58.9566 12.794C56.958 12.794 55.3378 14.4078 55.3378 16.3986C55.3378 18.3894 56.958 20.0033 58.9566 20.0033Z" fill="#35B3E9"/>
<path d="M59.0414 0C58.0885 0 57.156 0.384343 56.4807 1.05694C55.8055 1.72954 55.4196 2.65837 55.4196 3.60758C55.4196 4.55679 55.8055 5.48562 56.4807 6.15822C57.156 6.83082 58.0885 7.21517 59.0414 7.21517C59.9943 7.21517 60.9268 6.83082 61.6021 6.15822C62.2773 5.48562 62.6632 4.55679 62.6632 3.60758C62.6632 2.65837 62.2773 1.72954 61.6021 1.05694C60.9268 0.384343 59.9943 0 59.0414 0Z" fill="#35B3E9"/>
<path d="M59.0414 80.7033C58.0885 80.7033 57.156 81.0876 56.4807 81.7602C55.8055 82.4328 55.4196 83.3617 55.4196 84.3109C55.4196 85.2601 55.8055 86.1889 56.4807 86.8615C57.156 87.5341 58.0885 87.9185 59.0414 87.9185C59.9943 87.9185 60.9268 87.5341 61.6021 86.8615C62.2773 86.1889 62.6632 85.2601 62.6632 84.3109C62.6632 83.3617 62.2773 82.4328 61.6021 81.7602C60.9268 81.0876 59.9943 80.7033 59.0414 80.7033Z" fill="#35B3E9"/>
<path d="M58.9566 75.1216C60.9553 75.1216 62.5755 73.5077 62.5755 71.5169C62.5755 69.5261 60.9553 67.9123 58.9566 67.9123C56.958 67.9123 55.3378 69.5261 55.3378 71.5169C55.3378 73.5077 56.958 75.1216 58.9566 75.1216Z" fill="#35B3E9"/>
<path d="M97.4835 31.9383C96.7586 31.9383 96.0453 31.6442 95.5338 31.1347C95.0193 30.6222 94.727 29.9147 94.727 29.1926C94.727 28.4705 95.0222 27.76 95.5338 27.2505C96.0482 26.738 96.7586 26.4469 97.4835 26.4469C98.2084 26.4469 98.9217 26.741 99.4332 27.2505C99.9477 27.763 100.24 28.4705 100.24 29.1926C100.24 29.9147 99.9448 30.6252 99.4332 31.1347C98.9188 31.6472 98.2084 31.9383 97.4835 31.9383Z" fill="#2FC6F5"/>
<path d="M97.4835 61.4716C96.7586 61.4716 96.0453 61.1775 95.5338 60.668C95.0193 60.1555 94.727 59.448 94.727 58.7259C94.727 58.0038 95.0222 57.2933 95.5338 56.7838C96.0482 56.2713 96.7586 55.9801 97.4835 55.9801C98.2084 55.9801 98.9217 56.2742 99.4332 56.7838C99.9477 57.2962 100.24 58.0038 100.24 58.7259C100.24 59.448 99.9448 60.1584 99.4332 60.668C98.9188 61.1804 98.2084 61.4716 97.4835 61.4716Z" fill="#2FC6F5"/>
<path d="M98.6341 46.4917C99.9966 45.8118 100.548 44.1603 99.8652 42.8031C99.1826 41.4458 97.5247 40.8968 96.1621 41.5768C94.7995 42.2567 94.2483 43.9082 94.9309 45.2654C95.6136 46.6226 97.2715 47.1717 98.6341 46.4917Z" fill="#2FC6F5"/>
<path d="M71.7132 19.1473C73.2372 19.1473 74.4726 17.9167 74.4726 16.3986C74.4726 14.8806 73.2372 13.65 71.7132 13.65C70.1892 13.65 68.9537 14.8806 68.9537 16.3986C68.9537 17.9167 70.1892 19.1473 71.7132 19.1473Z" fill="#2FC6F5"/>
<path d="M71.7979 6.3533C71.073 6.3533 70.3598 6.05922 69.8482 5.54968C69.3337 5.03722 69.0414 4.32968 69.0414 3.60758C69.0414 2.88548 69.3367 2.17503 69.8482 1.66548C70.3627 1.15303 71.073 0.861858 71.7979 0.861858C72.5229 0.861858 73.2361 1.15594 73.7477 1.66548C74.2621 2.17794 74.5545 2.88548 74.5545 3.60758C74.5545 4.32968 74.2592 5.04013 73.7477 5.54968C73.2332 6.06214 72.5229 6.3533 71.7979 6.3533Z" fill="#2FC6F5"/>
<path d="M71.7979 87.0566C71.073 87.0566 70.3598 86.7625 69.8482 86.253C69.3337 85.7405 69.0414 85.033 69.0414 84.3109C69.0414 83.5888 69.3367 82.8783 69.8482 82.3688C70.3627 81.8563 71.073 81.5652 71.7979 81.5652C72.5229 81.5652 73.2361 81.8593 73.7477 82.3688C74.2621 82.8813 74.5545 83.5888 74.5545 84.3109C74.5545 85.033 74.2592 85.7434 73.7477 86.253C73.2332 86.7654 72.5229 87.0566 71.7979 87.0566Z" fill="#2FC6F5"/>
<path d="M71.7132 74.2656C73.2372 74.2656 74.4726 73.0349 74.4726 71.5169C74.4726 69.9989 73.2372 68.7683 71.7132 68.7683C70.1892 68.7683 68.9537 69.9989 68.9537 71.5169C68.9537 73.0349 70.1892 74.2656 71.7132 74.2656Z" fill="#2FC6F5"/>
<path d="M110.413 31.0794C109.913 31.0794 109.424 30.8785 109.071 30.5262C108.717 30.1738 108.515 29.6876 108.515 29.1897C108.515 28.6918 108.717 28.2055 109.071 27.8532C109.424 27.5009 109.913 27.3 110.413 27.3C110.912 27.3 111.401 27.5009 111.754 27.8532C112.108 28.2055 112.31 28.6918 112.31 29.1897C112.31 29.6876 112.108 30.1738 111.754 30.5262C111.401 30.8785 110.912 31.0794 110.413 31.0794Z" fill="#00B3B5"/>
<path d="M110.413 60.6126C109.913 60.6126 109.424 60.4117 109.071 60.0594C108.717 59.7071 108.515 59.2209 108.515 58.723C108.515 58.2251 108.717 57.7388 109.071 57.3865C109.424 57.0342 109.913 56.8333 110.413 56.8333C110.912 56.8333 111.401 57.0342 111.754 57.3865C112.108 57.7388 112.31 58.2251 112.31 58.723C112.31 59.2209 112.108 59.7071 111.754 60.0594C111.401 60.4117 110.912 60.6126 110.413 60.6126Z" fill="#00B3B5"/>
<path d="M110.325 45.9319C111.373 45.9319 112.222 45.0859 112.222 44.0422C112.222 42.9986 111.373 42.1525 110.325 42.1525C109.277 42.1525 108.428 42.9986 108.428 44.0422C108.428 45.0859 109.277 45.9319 110.325 45.9319Z" fill="#00B3B5"/>
<path d="M86.5124 16.699C86.6808 15.6689 85.979 14.6979 84.9449 14.5301C83.9107 14.3624 82.9359 15.0614 82.7675 16.0915C82.5991 17.1216 83.3008 18.0926 84.335 18.2604C85.3691 18.4281 86.3439 17.7291 86.5124 16.699Z" fill="#00B3B5"/>
<path d="M84.727 5.49436C84.2271 5.49436 83.7389 5.29345 83.3852 4.94114C83.0315 4.58882 82.8298 4.10257 82.8298 3.60467C82.8298 3.10677 83.0315 2.62052 83.3852 2.26821C83.7389 1.91589 84.2271 1.71498 84.727 1.71498C85.2268 1.71498 85.715 1.91589 86.0687 2.26821C86.4224 2.62052 86.6241 3.10677 86.6241 3.60467C86.6241 4.10257 86.4224 4.58882 86.0687 4.94114C85.715 5.29345 85.2268 5.49436 84.727 5.49436Z" fill="#00B3B5"/>
<path d="M84.727 86.1977C84.2271 86.1977 83.7389 85.9968 83.3852 85.6444C83.0315 85.2921 82.8298 84.8059 82.8298 84.308C82.8298 83.8101 83.0315 83.3238 83.3852 82.9715C83.7389 82.6192 84.2271 82.4183 84.727 82.4183C85.2268 82.4183 85.715 82.6192 86.0687 82.9715C86.4224 83.3238 86.6241 83.8101 86.6241 84.308C86.6241 84.8059 86.4224 85.2921 86.0687 85.6444C85.715 85.9968 85.2268 86.1977 84.727 86.1977Z" fill="#00B3B5"/>
<path d="M86.5119 71.8169C86.6803 70.7868 85.9785 69.8158 84.9444 69.648C83.9103 69.4802 82.9354 70.1793 82.767 71.2094C82.5986 72.2394 83.3004 73.2105 84.3345 73.3782C85.3686 73.546 86.3435 72.8469 86.5119 71.8169Z" fill="#00B3B5"/>
<path d="M123.342 30.2204C123.07 30.2204 122.804 30.1098 122.611 29.9176C122.418 29.7254 122.31 29.4605 122.31 29.1897C122.31 28.9189 122.421 28.6539 122.614 28.4618C122.807 28.2696 123.073 28.1589 123.344 28.1589C123.616 28.1589 123.882 28.2696 124.075 28.4618C124.268 28.6539 124.379 28.9189 124.379 29.1897C124.379 29.4605 124.268 29.7254 124.075 29.9176C123.882 30.1098 123.616 30.2204 123.344 30.2204H123.342Z" fill="#7FCBAE"/>
<path d="M123.342 59.7537C123.07 59.7537 122.804 59.643 122.611 59.4509C122.418 59.2587 122.31 58.9937 122.31 58.723C122.31 58.4522 122.421 58.1872 122.614 57.995C122.807 57.8029 123.073 57.6922 123.344 57.6922C123.616 57.6922 123.882 57.8029 124.075 57.995C124.268 58.1872 124.379 58.4522 124.379 58.723C124.379 58.9937 124.268 59.2587 124.075 59.4509C123.882 59.643 123.616 59.7537 123.344 59.7537H123.342Z" fill="#7FCBAE"/>
<path d="M123.254 45.073C122.684 45.073 122.219 44.61 122.219 44.0422C122.219 43.4744 122.684 43.0115 123.254 43.0115C123.824 43.0115 124.289 43.4744 124.289 44.0422C124.289 44.61 123.824 45.073 123.254 45.073Z" fill="#7FCBAE"/>
<path d="M97.5683 17.4294C96.9983 17.4294 96.5335 16.9664 96.5335 16.3986C96.5335 15.8309 96.9983 15.3679 97.5683 15.3679C98.1383 15.3679 98.6031 15.8309 98.6031 16.3986C98.6031 16.9664 98.1383 17.4294 97.5683 17.4294Z" fill="#7FCBAE"/>
<path d="M97.656 4.63541C97.3841 4.63541 97.1181 4.52476 96.9252 4.33259C96.7322 4.14042 96.6241 3.87546 96.6241 3.60467C96.6241 3.33388 96.7352 3.06892 96.9281 2.87675C97.121 2.68458 97.387 2.57393 97.6589 2.57393C97.9307 2.57393 98.1967 2.68458 98.3897 2.87675C98.5826 3.06892 98.6937 3.33388 98.6937 3.60467C98.6937 3.87546 98.5826 4.14042 98.3897 4.33259C98.1967 4.52476 97.9307 4.63541 97.6589 4.63541H97.656Z" fill="#7FCBAE"/>
<path d="M97.656 85.3387C97.3841 85.3387 97.1181 85.2281 96.9252 85.0359C96.7322 84.8437 96.6241 84.5788 96.6241 84.308C96.6241 84.0372 96.7352 83.7722 96.9281 83.5801C97.121 83.3879 97.387 83.2801 97.6589 83.2801C97.9307 83.2801 98.1967 83.3908 98.3897 83.583C98.5826 83.7751 98.6937 84.0401 98.6937 84.3109C98.6937 84.5817 98.5826 84.8466 98.3897 85.0388C98.1967 85.231 97.9307 85.3416 97.6589 85.3416L97.656 85.3387Z" fill="#7FCBAE"/>
<path d="M97.5683 72.5477C96.9983 72.5477 96.5335 72.0847 96.5335 71.5169C96.5335 70.9491 96.9983 70.4862 97.5683 70.4862C98.1383 70.4862 98.6031 70.9491 98.6031 71.5169C98.6031 72.0847 98.1383 72.5477 97.5683 72.5477Z" fill="#7FCBAE"/>
<path d="M152.757 25.518V43.5472H149.565V31.8219L145.3 43.5472H142.883L138.598 31.8219V43.5472H135.406V25.518H139.03L144.093 38.9235L149.156 25.518H152.757Z" fill="#35B3E9"/>
<path d="M167.554 37.4793H158.32C158.396 38.5129 158.715 39.3224 159.279 39.9076C159.84 40.4929 160.533 40.7869 161.354 40.7869C162.541 40.7869 163.383 40.2104 163.886 39.0574H167.329C166.964 40.4346 166.265 41.5673 165.23 42.4553C164.195 43.3434 162.927 43.786 161.421 43.786C160.205 43.786 159.115 43.4803 158.15 42.8688C157.186 42.2573 156.432 41.3926 155.894 40.2716C155.353 39.1535 155.084 37.8607 155.084 36.3961C155.084 34.9315 155.35 33.6155 155.882 32.4945C156.414 31.3764 157.159 30.5145 158.115 29.9118C159.074 29.3091 160.176 29.0092 161.421 29.0092C162.667 29.0092 163.699 29.3032 164.649 29.8885C165.599 30.4737 166.335 31.3036 166.861 32.3809C167.385 33.4582 167.648 34.6928 167.648 36.0875C167.648 36.6029 167.618 37.0687 167.557 37.4822L167.554 37.4793ZM164.339 35.0509C164.324 34.1221 164.026 33.3767 163.45 32.8177C162.871 32.2586 162.164 31.9791 161.331 31.9791C160.542 31.9791 159.875 32.2499 159.334 32.7914C158.793 33.333 158.463 34.0871 158.343 35.0509H164.339Z" fill="#35B3E9"/>
<path d="M169.916 32.4945C170.425 31.3764 171.12 30.5145 172.003 29.9118C172.886 29.3091 173.865 29.0092 174.944 29.0092C175.765 29.0092 176.549 29.213 177.291 29.6148C178.036 30.0195 178.63 30.5582 179.068 31.2279V24.4349H182.307V43.5472H179.068V41.4304C178.674 42.138 178.118 42.7058 177.405 43.1338C176.692 43.5647 175.862 43.7802 174.92 43.7802C173.856 43.7802 172.883 43.4715 172.003 42.8513C171.12 42.2311 170.425 41.3576 169.916 40.2308C169.407 39.104 169.153 37.8083 169.153 36.3437C169.153 34.8791 169.407 33.6155 169.916 32.4945ZM178.636 34.1337C178.332 33.5048 177.922 33.0244 177.405 32.6866C176.888 32.3518 176.332 32.1829 175.742 32.1829C175.151 32.1829 174.602 32.346 174.099 32.675C173.596 33.0011 173.19 33.4815 172.88 34.1075C172.567 34.7365 172.412 35.4818 172.412 36.3408C172.412 37.1997 172.567 37.9539 172.88 38.6003C173.193 39.2467 173.602 39.7417 174.111 40.0852C174.619 40.4288 175.163 40.6006 175.742 40.6006C176.321 40.6006 176.891 40.4317 177.405 40.0969C177.922 39.762 178.332 39.2787 178.636 38.6498C178.94 38.0208 179.092 37.2667 179.092 36.3903C179.092 35.5139 178.94 34.7598 178.636 34.1308V34.1337Z" fill="#35B3E9"/>
<path d="M185.648 26.9273C185.277 26.5226 185.09 26.0189 185.09 25.4161C185.09 24.8134 185.277 24.3097 185.648 23.905C186.02 23.5002 186.487 23.2993 187.051 23.2993C187.616 23.2993 188.08 23.5032 188.454 23.905C188.826 24.3097 189.013 24.8134 189.013 25.4161C189.013 26.0189 188.826 26.5226 188.454 26.9273C188.08 27.332 187.616 27.5329 187.051 27.5329C186.487 27.5329 186.022 27.332 185.648 26.9273ZM188.624 29.2392V43.5472H185.432V29.2392H188.624Z" fill="#35B3E9"/>
<path d="M191.951 32.6109C192.468 31.519 193.184 30.6688 194.105 30.0661C195.026 29.4634 196.078 29.1635 197.262 29.1635C198.797 29.1635 200.062 29.5857 201.059 30.4301C202.056 31.2745 202.714 32.445 203.032 33.9416H200.799C200.586 33.0797 200.173 32.4013 199.557 31.9005C198.94 31.4026 198.177 31.1522 197.265 31.1522C196.078 31.1522 195.122 31.6122 194.391 32.5352C193.661 33.4553 193.298 34.7598 193.298 36.4485C193.298 38.1373 193.664 39.4709 194.391 40.3997C195.122 41.3285 196.078 41.7944 197.265 41.7944C198.177 41.7944 198.937 41.5527 199.545 41.0723C200.153 40.5919 200.571 39.9018 200.799 39.005H203.032C202.699 40.4521 202.03 41.611 201.027 42.4786C200.024 43.3492 198.77 43.7831 197.265 43.7831C196.078 43.7831 195.026 43.4832 194.108 42.8805C193.187 42.2777 192.471 41.4246 191.953 40.324C191.436 39.2234 191.179 37.9306 191.179 36.4485C191.179 34.9665 191.436 33.7057 191.953 32.6138L191.951 32.6109Z" fill="#2FC6F5"/>
<path d="M208.06 42.8775C207.11 42.2748 206.365 41.4188 205.827 40.3065C205.286 39.1972 205.017 37.9102 205.017 36.4456C205.017 34.981 205.295 33.7203 205.85 32.6109C206.405 31.5016 207.163 30.6484 208.118 30.0545C209.077 29.4605 210.147 29.1635 211.334 29.1635C212.521 29.1635 213.591 29.4605 214.549 30.0545C215.508 30.6484 216.262 31.4957 216.818 32.5993C217.373 33.7028 217.651 34.984 217.651 36.4485C217.651 37.9131 217.364 39.2001 216.794 40.3094C216.224 41.4188 215.453 42.2777 214.479 42.8805C213.506 43.4832 212.427 43.7831 211.24 43.7831C210.054 43.7831 209.01 43.4832 208.06 42.8805V42.8775ZM213.339 41.1218C213.991 40.7258 214.52 40.1318 214.923 39.3398C215.327 38.5479 215.529 37.5841 215.529 36.4456C215.529 35.3071 215.33 34.3463 214.935 33.5514C214.541 32.7594 214.023 32.1683 213.386 31.7811C212.749 31.3938 212.056 31.1988 211.31 31.1988C210.565 31.1988 209.855 31.3938 209.223 31.7811C208.592 32.1683 208.086 32.7594 207.706 33.5514C207.326 34.3434 207.136 35.3071 207.136 36.4456C207.136 37.5841 207.323 38.5712 207.695 39.3631C208.066 40.1551 208.566 40.7462 209.188 41.1334C209.811 41.5207 210.495 41.7158 211.24 41.7158C211.986 41.7158 212.684 41.5178 213.339 41.1218Z" fill="#2FC6F5"/>
<path d="M230.165 30.6979C231.106 31.7403 231.579 33.2428 231.579 35.2052V43.5472H229.527V35.5401C229.527 34.1279 229.215 33.0477 228.592 32.2994C227.969 31.5511 227.119 31.1755 226.037 31.1755C224.956 31.1755 224.073 31.5627 223.427 32.3372C222.781 33.1117 222.459 34.2415 222.459 35.7206V43.5472H220.384V29.3935H222.459V31.4084C222.869 30.6863 223.427 30.1273 224.134 29.7284C224.842 29.3324 225.619 29.1344 226.473 29.1344C227.993 29.1344 229.223 29.6556 230.168 30.6979H230.165Z" fill="#2FC6F5"/>
<path d="M244.76 30.6979C245.701 31.7403 246.175 33.2428 246.175 35.2052V43.5472H244.123V35.5401C244.123 34.1279 243.81 33.0477 243.187 32.2994C242.565 31.5511 241.714 31.1755 240.632 31.1755C239.551 31.1755 238.668 31.5627 238.022 32.3372C237.376 33.1117 237.054 34.2415 237.054 35.7206V43.5472H234.979V29.3935H237.054V31.4084C237.464 30.6863 238.022 30.1273 238.729 29.7284C239.437 29.3324 240.214 29.1344 241.068 29.1344C242.588 29.1344 243.819 29.6556 244.763 30.6979H244.76Z" fill="#2FC6F5"/>
<path d="M260.901 37.3482H250.913C250.989 38.7429 251.41 39.8319 252.179 40.6152C252.945 41.3984 253.877 41.7915 254.97 41.7915C255.868 41.7915 256.616 41.5556 257.215 41.081C257.815 40.6064 258.238 39.9746 258.481 39.1826H260.714C260.381 40.5424 259.712 41.6488 258.709 42.5019C257.706 43.3551 256.458 43.7802 254.97 43.7802C253.784 43.7802 252.725 43.4803 251.79 42.8775C250.855 42.2748 250.121 41.4188 249.589 40.3065C249.057 39.1972 248.791 37.9102 248.791 36.4456C248.791 34.981 249.048 33.6999 249.565 32.5964C250.083 31.4957 250.808 30.6455 251.743 30.0515C252.679 29.4576 253.754 29.1606 254.97 29.1606C256.186 29.1606 257.204 29.4547 258.116 30.0399C259.028 30.6252 259.729 31.4317 260.223 32.4537C260.717 33.4786 260.966 34.6375 260.966 35.9273C260.966 36.3757 260.942 36.8474 260.898 37.3482H260.901ZM258.303 33.1263C257.952 32.4799 257.478 31.9907 256.876 31.653C256.277 31.3181 255.611 31.1493 254.88 31.1493C253.83 31.1493 252.939 31.5278 252.199 32.2848C251.463 33.0419 251.039 34.093 250.933 35.4353H258.823C258.823 34.5414 258.648 33.7698 258.3 33.1234L258.303 33.1263Z" fill="#2FC6F5"/>
<path d="M263.705 32.6109C264.222 31.519 264.938 30.6688 265.859 30.0661C266.78 29.4634 267.832 29.1635 269.016 29.1635C270.551 29.1635 271.816 29.5857 272.813 30.4301C273.81 31.2745 274.468 32.445 274.786 33.9416H272.553C272.34 33.0797 271.927 32.4013 271.311 31.9005C270.694 31.4026 269.931 31.1522 269.019 31.1522C267.832 31.1522 266.876 31.6122 266.145 32.5352C265.415 33.4553 265.052 34.7598 265.052 36.4485C265.052 38.1373 265.418 39.4709 266.145 40.3997C266.876 41.3285 267.832 41.7944 269.019 41.7944C269.931 41.7944 270.691 41.5527 271.299 41.0723C271.907 40.5919 272.325 39.9018 272.553 39.005H274.786C274.453 40.4521 273.784 41.611 272.781 42.4786C271.778 43.3492 270.524 43.7831 269.019 43.7831C267.832 43.7831 266.78 43.4832 265.862 42.8805C264.941 42.2777 264.225 41.4246 263.708 40.324C263.19 39.2234 262.933 37.9306 262.933 36.4485C262.933 34.9665 263.19 33.7057 263.708 32.6138L263.705 32.6109Z" fill="#2FC6F5"/>
<path d="M280.077 31.3298V39.6718C280.077 40.3618 280.206 40.8481 280.466 41.1305C280.723 41.4159 281.173 41.5556 281.811 41.5556H283.339V43.5443H281.469C280.314 43.5443 279.446 43.2444 278.87 42.6417C278.291 42.039 278.005 41.049 278.005 39.6718V31.3298H276.385V29.3935H278.005V25.8296H280.08V29.3935H283.339V31.3298H280.08H280.077Z" fill="#2FC6F5"/>
<path d="M135.824 54.6728C136.119 54.0963 136.522 53.6421 137.034 53.3159C137.545 52.9898 138.112 52.8268 138.735 52.8268C139.469 52.8268 140.109 53.0219 140.655 53.412C141.202 53.8022 141.6 54.3554 141.851 55.0717H140.799C140.612 54.6262 140.343 54.2826 139.992 54.041C139.641 53.7993 139.223 53.6799 138.732 53.6799C138.241 53.6799 137.84 53.7993 137.469 54.041C137.095 54.2826 136.803 54.6233 136.592 55.0659C136.379 55.5085 136.274 56.0296 136.274 56.6236C136.274 57.2176 136.379 57.7272 136.592 58.1697C136.806 58.6123 137.098 58.9559 137.469 59.1947C137.843 59.4363 138.264 59.5557 138.732 59.5557C139.2 59.5557 139.641 59.4363 139.992 59.2005C140.343 58.9617 140.612 58.621 140.799 58.1726H141.851C141.6 58.8831 141.202 59.4305 140.655 59.8148C140.109 60.2021 139.469 60.3943 138.735 60.3943C138.112 60.3943 137.542 60.2341 137.034 59.9109C136.522 59.5877 136.119 59.1393 135.824 58.5657C135.528 57.9921 135.379 57.3428 135.379 56.6207C135.379 55.8986 135.528 55.2464 135.824 54.6699V54.6728Z" fill="#2FC6F5"/>
<path d="M144.116 60.0594C143.713 59.8119 143.4 59.4596 143.172 59.0025C142.944 58.5453 142.83 58.0154 142.83 57.4127C142.83 56.81 142.947 56.2917 143.181 55.8346C143.415 55.3774 143.736 55.0251 144.14 54.7805C144.546 54.5359 144.999 54.4137 145.499 54.4137C145.999 54.4137 146.455 54.5359 146.858 54.7805C147.265 55.0251 147.583 55.3745 147.817 55.8287C148.051 56.283 148.171 56.81 148.171 57.4127C148.171 58.0154 148.051 58.5453 147.808 59.0025C147.569 59.4596 147.241 59.8119 146.829 60.0594C146.417 60.3069 145.961 60.4321 145.458 60.4321C144.955 60.4321 144.514 60.3069 144.114 60.0594H144.116ZM146.35 59.3373C146.627 59.1743 146.85 58.9297 147.019 58.6036C147.189 58.2775 147.273 57.8815 147.273 57.4127C147.273 56.9439 147.189 56.5479 147.022 56.2218C146.855 55.8957 146.636 55.654 146.367 55.4939C146.098 55.3337 145.803 55.2551 145.49 55.2551C145.178 55.2551 144.874 55.3337 144.608 55.4939C144.342 55.654 144.128 55.8957 143.967 56.2218C143.807 56.5479 143.725 56.9439 143.725 57.4127C143.725 57.8815 143.804 58.2891 143.962 58.6152C144.119 58.9413 144.33 59.183 144.593 59.3431C144.856 59.5033 145.145 59.5819 145.461 59.5819C145.777 59.5819 146.072 59.5004 146.35 59.3373Z" fill="#2FC6F5"/>
<path d="M153.468 55.0455C153.865 55.4735 154.064 56.0937 154.064 56.9002V60.336H153.196V57.04C153.196 56.4577 153.064 56.0151 152.801 55.7064C152.538 55.3978 152.178 55.2435 151.72 55.2435C151.261 55.2435 150.889 55.4036 150.615 55.721C150.34 56.0413 150.205 56.5043 150.205 57.1157V60.3389H149.328V54.5097H150.205V55.3396C150.378 55.0426 150.615 54.8126 150.916 54.6495C151.214 54.4864 151.544 54.4049 151.904 54.4049C152.547 54.4049 153.067 54.6204 153.468 55.0484V55.0455Z" fill="#2FC6F5"/>
<path d="M159.641 55.0455C160.039 55.4735 160.24 56.0937 160.24 56.9002V60.336H159.372V57.04C159.372 56.4577 159.241 56.0151 158.978 55.7064C158.715 55.3978 158.355 55.2435 157.896 55.2435C157.437 55.2435 157.066 55.4036 156.791 55.721C156.516 56.0413 156.382 56.5043 156.382 57.1157V60.3389H155.505V54.5097H156.382V55.3396C156.554 55.0426 156.791 54.8126 157.092 54.6495C157.39 54.4864 157.721 54.4049 158.08 54.4049C158.723 54.4049 159.244 54.6204 159.644 55.0484L159.641 55.0455Z" fill="#2FC6F5"/>
<path d="M166.47 57.7854H162.246C162.278 58.359 162.456 58.8074 162.781 59.1306C163.105 59.4538 163.5 59.6139 163.962 59.6139C164.342 59.6139 164.657 59.5179 164.912 59.3228C165.166 59.1277 165.344 58.8685 165.447 58.5395H166.391C166.25 59.0986 165.967 59.5557 165.543 59.9051C165.119 60.2574 164.59 60.4321 163.962 60.4321C163.459 60.4321 163.012 60.3069 162.617 60.0594C162.222 59.8119 161.91 59.4596 161.687 59.0025C161.462 58.5453 161.348 58.0154 161.348 57.4127C161.348 56.81 161.456 56.283 161.676 55.8287C161.895 55.3745 162.202 55.0251 162.596 54.7805C162.991 54.5359 163.447 54.4137 163.962 54.4137C164.476 54.4137 164.906 54.533 165.292 54.7747C165.677 55.0164 165.976 55.3483 166.183 55.7705C166.391 56.1927 166.496 56.6702 166.496 57.2001C166.496 57.3836 166.487 57.5787 166.467 57.7854H166.47ZM165.371 56.0471C165.221 55.7822 165.023 55.5783 164.768 55.4415C164.514 55.3046 164.233 55.2348 163.924 55.2348C163.479 55.2348 163.102 55.392 162.789 55.7035C162.477 56.0151 162.298 56.4489 162.254 57.0022H165.593C165.593 56.6324 165.52 56.315 165.371 56.05V56.0471Z" fill="#2FC6F5"/>
<path d="M167.656 55.8316C167.876 55.3803 168.18 55.0309 168.568 54.7834C168.957 54.5359 169.402 54.4107 169.904 54.4107C170.553 54.4107 171.088 54.5854 171.509 54.9319C171.93 55.2784 172.208 55.7618 172.342 56.379H171.398C171.307 56.0238 171.132 55.7443 170.872 55.5376C170.612 55.3308 170.287 55.2289 169.901 55.2289C169.399 55.2289 168.995 55.4182 168.685 55.7967C168.376 56.1752 168.224 56.7139 168.224 57.4069C168.224 58.0999 168.378 58.6502 168.685 59.0345C168.995 59.4159 169.399 59.6081 169.901 59.6081C170.287 59.6081 170.609 59.5091 170.866 59.3111C171.123 59.1131 171.299 58.8278 171.395 58.4609H172.339C172.199 59.0578 171.915 59.5324 171.492 59.8905C171.068 60.2487 170.536 60.4263 169.901 60.4263C169.399 60.4263 168.954 60.3011 168.566 60.0536C168.177 59.8061 167.873 59.4538 167.654 58.9996C167.434 58.5453 167.326 58.0154 167.326 57.404C167.326 56.7925 167.434 56.2742 167.654 55.8258L167.656 55.8316Z" fill="#2FC6F5"/>
<path d="M174.584 55.3046V58.7404C174.584 59.0229 174.64 59.2238 174.748 59.3402C174.856 59.4567 175.046 59.5149 175.318 59.5149H175.964V60.3331H175.172C174.684 60.3331 174.315 60.2079 174.073 59.9604C173.83 59.7129 173.707 59.3053 173.707 58.7375V55.3017H173.023V54.5039H173.707V53.0364H174.584V54.5039H175.964V55.3017H174.584V55.3046Z" fill="#2FC6F5"/>
<path d="M177.051 53.3713C176.934 53.2432 176.879 53.0888 176.879 52.9025C176.879 52.7161 176.937 52.5618 177.051 52.4337C177.168 52.3056 177.309 52.2415 177.475 52.2415C177.642 52.2415 177.773 52.3056 177.884 52.4337C177.996 52.5618 178.054 52.7161 178.054 52.9025C178.054 53.0888 177.998 53.2432 177.884 53.3713C177.773 53.4994 177.636 53.5634 177.475 53.5634C177.314 53.5634 177.165 53.4994 177.051 53.3713ZM177.899 54.5097V60.3389H177.022V54.5097H177.899Z" fill="#2FC6F5"/>
<path d="M183.535 55.0455C183.932 55.4735 184.134 56.0937 184.134 56.9002V60.336H183.266V57.04C183.266 56.4577 183.134 56.0151 182.871 55.7064C182.608 55.3978 182.249 55.2435 181.79 55.2435C181.331 55.2435 180.96 55.4036 180.685 55.721C180.41 56.0413 180.276 56.5043 180.276 57.1157V60.3389H179.399V54.5097H180.276V55.3396C180.448 55.0426 180.685 54.8126 180.986 54.6495C181.284 54.4864 181.614 54.4049 181.974 54.4049C182.617 54.4049 183.137 54.6204 183.538 55.0484L183.535 55.0455Z" fill="#2FC6F5"/>
<path d="M188.951 54.7427C189.296 54.964 189.551 55.2406 189.717 55.5725V54.5097H190.606V60.4671C190.606 60.9999 190.504 61.4716 190.296 61.888C190.089 62.3043 189.796 62.6275 189.413 62.8605C189.03 63.0934 188.586 63.2128 188.077 63.2128C187.382 63.2128 186.803 63.0323 186.341 62.6712C185.879 62.3102 185.604 61.8152 185.523 61.1921H186.391C186.487 61.5473 186.686 61.8326 186.99 62.0481C187.291 62.2636 187.656 62.3713 188.08 62.3713C188.563 62.3713 188.957 62.2053 189.261 61.8705C189.565 61.5357 189.72 61.0698 189.72 60.4671V59.2442C189.548 59.5848 189.291 59.8673 188.949 60.0944C188.606 60.3215 188.209 60.435 187.753 60.435C187.297 60.435 186.858 60.3069 186.476 60.0536C186.093 59.7974 185.792 59.4392 185.572 58.9792C185.353 58.5191 185.245 57.995 185.245 57.404C185.245 56.8129 185.353 56.2859 185.572 55.8346C185.792 55.3832 186.093 55.0338 186.476 54.7864C186.858 54.5389 187.285 54.4137 187.753 54.4137C188.221 54.4137 188.609 54.5243 188.954 54.7427H188.951ZM189.478 56.2626C189.317 55.9365 189.101 55.6861 188.826 55.5114C188.551 55.3367 188.253 55.2493 187.922 55.2493C187.592 55.2493 187.297 55.3338 187.025 55.5055C186.756 55.6744 186.54 55.9248 186.379 56.2509C186.218 56.577 186.136 56.9614 186.136 57.4011C186.136 57.8407 186.215 58.2367 186.379 58.5657C186.54 58.8947 186.756 59.1481 187.025 59.3199C187.294 59.4946 187.595 59.579 187.922 59.579C188.25 59.579 188.551 59.4916 188.826 59.3199C189.098 59.1452 189.317 58.8947 189.478 58.5657C189.638 58.2367 189.72 57.8524 189.72 57.4127C189.72 56.973 189.638 56.5916 189.478 56.2626Z" fill="#2FC6F5"/>
<path d="M198.805 52.9229V53.709H196.973V60.336H196.096V53.709H194.254V52.9229H198.808H198.805Z" fill="#2FC6F5"/>
<path d="M203.59 54.6844C203.912 54.8737 204.163 55.1532 204.348 55.5288C204.532 55.9044 204.622 56.3616 204.622 56.9002V60.336H203.754V57.04C203.754 56.4577 203.623 56.0151 203.36 55.7064C203.096 55.3978 202.737 55.2435 202.278 55.2435C201.819 55.2435 201.448 55.4036 201.173 55.721C200.898 56.0413 200.764 56.5043 200.764 57.1157V60.3389H199.887V52.4686H200.764V55.3396C200.936 55.0426 201.176 54.8126 201.483 54.6495C201.787 54.4864 202.132 54.4049 202.509 54.4049C202.906 54.4049 203.269 54.4981 203.59 54.6874V54.6844Z" fill="#2FC6F5"/>
<path d="M210.852 57.7854H206.628C206.66 58.359 206.838 58.8074 207.163 59.1306C207.487 59.4538 207.882 59.6139 208.343 59.6139C208.724 59.6139 209.039 59.5179 209.294 59.3228C209.548 59.1277 209.726 58.8685 209.828 58.5395H210.773C210.632 59.0986 210.349 59.5557 209.925 59.9051C209.501 60.2574 208.972 60.4321 208.343 60.4321C207.841 60.4321 207.393 60.3069 206.999 60.0594C206.604 59.8119 206.291 59.4596 206.069 59.0025C205.844 58.5453 205.73 58.0154 205.73 57.4127C205.73 56.81 205.838 56.283 206.058 55.8287C206.277 55.3745 206.584 55.0251 206.978 54.7805C207.373 54.5359 207.829 54.4137 208.343 54.4137C208.858 54.4137 209.288 54.533 209.674 54.7747C210.059 55.0164 210.358 55.3483 210.565 55.7705C210.773 56.1927 210.878 56.6702 210.878 57.2001C210.878 57.3836 210.869 57.5787 210.849 57.7854H210.852ZM209.752 56.0471C209.603 55.7822 209.405 55.5783 209.15 55.4415C208.896 55.3046 208.615 55.2348 208.305 55.2348C207.861 55.2348 207.484 55.392 207.171 55.7035C206.859 56.0151 206.68 56.4489 206.636 57.0022H209.975C209.975 56.6324 209.902 56.315 209.752 56.05V56.0471Z" fill="#2FC6F5"/>
<path d="M221.433 52.9753V60.336H220.556V54.8475L218.338 60.336H217.721L215.493 54.8359V60.336H214.617V52.9753H215.561L218.031 59.0578L220.501 52.9753H221.436H221.433Z" fill="#2FC6F5"/>
<path d="M227.715 57.7854H223.491C223.523 58.359 223.702 58.8074 224.026 59.1306C224.351 59.4538 224.745 59.6139 225.207 59.6139C225.587 59.6139 225.903 59.5179 226.157 59.3228C226.411 59.1277 226.59 58.8685 226.692 58.5395H227.636C227.496 59.0986 227.212 59.5557 226.788 59.9051C226.365 60.2574 225.836 60.4321 225.207 60.4321C224.704 60.4321 224.257 60.3069 223.862 60.0594C223.468 59.8119 223.155 59.4596 222.933 59.0025C222.708 58.5453 222.594 58.0154 222.594 57.4127C222.594 56.81 222.702 56.283 222.921 55.8287C223.14 55.3745 223.447 55.0251 223.842 54.7805C224.237 54.5359 224.693 54.4137 225.207 54.4137C225.722 54.4137 226.151 54.533 226.537 54.7747C226.923 55.0164 227.221 55.3483 227.429 55.7705C227.636 56.1927 227.741 56.6702 227.741 57.2001C227.741 57.3836 227.733 57.5787 227.712 57.7854H227.715ZM226.616 56.0471C226.467 55.7822 226.268 55.5783 226.014 55.4415C225.759 55.3046 225.479 55.2348 225.169 55.2348C224.725 55.2348 224.348 55.392 224.035 55.7035C223.722 56.0151 223.544 56.4489 223.5 57.0022H226.838C226.838 56.6324 226.765 56.315 226.616 56.05V56.0471Z" fill="#2FC6F5"/>
<path d="M228.902 55.8316C229.121 55.3803 229.422 55.0309 229.805 54.7834C230.188 54.5359 230.618 54.4107 231.094 54.4107C231.506 54.4107 231.889 54.5156 232.243 54.7252C232.597 54.9348 232.866 55.2085 233.053 55.5492V52.4657H233.941V60.336H233.053V59.2412C232.88 59.5877 232.623 59.8731 232.281 60.0973C231.939 60.3215 231.541 60.4321 231.085 60.4321C230.629 60.4321 230.191 60.304 229.808 60.0507C229.425 59.7945 229.124 59.4363 228.905 58.9763C228.686 58.5162 228.577 57.9921 228.577 57.401C228.577 56.81 228.686 56.283 228.905 55.8316H228.902ZM232.81 56.2626C232.649 55.9365 232.433 55.6861 232.158 55.5114C231.883 55.3367 231.585 55.2493 231.255 55.2493C230.925 55.2493 230.629 55.3338 230.358 55.5055C230.089 55.6744 229.872 55.9248 229.712 56.2509C229.551 56.577 229.469 56.9614 229.469 57.401C229.469 57.8407 229.548 58.2367 229.712 58.5657C229.872 58.8947 230.089 59.1481 230.358 59.3199C230.627 59.4946 230.928 59.579 231.255 59.579C231.582 59.579 231.883 59.4916 232.158 59.3199C232.43 59.1452 232.649 58.8947 232.81 58.5657C232.971 58.2367 233.053 57.8524 233.053 57.4127C233.053 56.973 232.971 56.5916 232.81 56.2626Z" fill="#2FC6F5"/>
<path d="M235.45 53.3713C235.333 53.2432 235.277 53.0888 235.277 52.9025C235.277 52.7161 235.336 52.5618 235.45 52.4337C235.567 52.3056 235.707 52.2415 235.874 52.2415C236.04 52.2415 236.172 52.3056 236.283 52.4337C236.394 52.5618 236.452 52.7161 236.452 52.9025C236.452 53.0888 236.397 53.2432 236.283 53.3713C236.172 53.4994 236.034 53.5634 235.874 53.5634C235.713 53.5634 235.564 53.4994 235.45 53.3713ZM236.297 54.5097V60.3389H235.42V54.5097H236.297Z" fill="#2FC6F5"/>
<path d="M237.794 55.8316C238.013 55.3803 238.317 55.0309 238.706 54.7834C239.095 54.5359 239.539 54.4107 240.042 54.4107C240.691 54.4107 241.226 54.5854 241.647 54.9319C242.068 55.2784 242.345 55.7618 242.48 56.379H241.536C241.445 56.0238 241.27 55.7443 241.009 55.5376C240.749 55.3308 240.425 55.2289 240.039 55.2289C239.536 55.2289 239.133 55.4182 238.823 55.7967C238.513 56.1752 238.361 56.7139 238.361 57.4069C238.361 58.0999 238.516 58.6502 238.823 59.0345C239.133 59.4159 239.536 59.6081 240.039 59.6081C240.425 59.6081 240.746 59.5091 241.004 59.3111C241.261 59.1131 241.436 58.8278 241.533 58.4609H242.477C242.337 59.0578 242.053 59.5324 241.629 59.8905C241.205 60.2487 240.673 60.4263 240.039 60.4263C239.536 60.4263 239.092 60.3011 238.703 60.0536C238.314 59.8061 238.01 59.4538 237.791 58.9996C237.572 58.5453 237.464 58.0154 237.464 57.404C237.464 56.7925 237.572 56.2742 237.791 55.8258L237.794 55.8316Z" fill="#2FC6F5"/>
<path d="M243.649 55.8316C243.868 55.3803 244.169 55.0309 244.552 54.7834C244.935 54.5359 245.362 54.4107 245.83 54.4107C246.297 54.4107 246.695 54.5214 247.034 54.7398C247.376 54.9611 247.627 55.2377 247.797 55.5696V54.5068H248.686V60.336H247.797V59.25C247.625 59.5906 247.364 59.8731 247.019 60.0944C246.675 60.3157 246.274 60.4292 245.818 60.4292C245.362 60.4292 244.924 60.3011 244.544 60.0478C244.164 59.7915 243.865 59.4334 243.646 58.9734C243.427 58.5133 243.319 57.9892 243.319 57.3981C243.319 56.8071 243.427 56.2801 243.646 55.8287L243.649 55.8316ZM247.557 56.2626C247.397 55.9365 247.18 55.6861 246.905 55.5114C246.631 55.3367 246.332 55.2493 246.002 55.2493C245.672 55.2493 245.377 55.3338 245.105 55.5055C244.836 55.6744 244.62 55.9248 244.459 56.2509C244.298 56.577 244.216 56.9614 244.216 57.4011C244.216 57.8407 244.295 58.2367 244.459 58.5657C244.62 58.8947 244.836 59.1481 245.105 59.3199C245.374 59.4946 245.675 59.579 246.002 59.579C246.33 59.579 246.631 59.4916 246.905 59.3199C247.177 59.1452 247.397 58.8947 247.557 58.5657C247.718 58.2367 247.8 57.8524 247.8 57.4127C247.8 56.973 247.718 56.5916 247.557 56.2626Z" fill="#2FC6F5"/>
<path d="M251.048 52.4657V60.336H250.171V52.4657H251.048Z" fill="#2FC6F5"/>
<path d="M263.57 52.9229L261.62 60.336H260.635L259.072 54.37L257.452 60.336L256.479 60.3477L254.596 52.9229H255.532L256.999 59.2092L258.618 52.9229H259.604L261.147 59.1888L262.623 52.9229H263.567H263.57Z" fill="#2FC6F5"/>
<path d="M265.494 60.0594C265.09 59.8119 264.777 59.4596 264.549 59.0025C264.321 58.5453 264.207 58.0154 264.207 57.4127C264.207 56.81 264.324 56.2917 264.558 55.8346C264.792 55.3774 265.114 55.0251 265.517 54.7805C265.92 54.5359 266.376 54.4137 266.876 54.4137C267.376 54.4137 267.832 54.5359 268.236 54.7805C268.639 55.0251 268.96 55.3745 269.194 55.8287C269.428 56.283 269.548 56.81 269.548 57.4127C269.548 58.0154 269.428 58.5453 269.186 59.0025C268.943 59.4596 268.618 59.8119 268.206 60.0594C267.794 60.3069 267.338 60.4321 266.835 60.4321C266.333 60.4321 265.891 60.3069 265.491 60.0594H265.494ZM267.727 59.3373C268.005 59.1743 268.227 58.9297 268.396 58.6036C268.566 58.2775 268.651 57.8815 268.651 57.4127C268.651 56.9439 268.566 56.5479 268.399 56.2218C268.233 55.8957 268.013 55.654 267.744 55.4939C267.475 55.3337 267.18 55.2551 266.867 55.2551C266.555 55.2551 266.251 55.3337 265.985 55.4939C265.719 55.654 265.502 55.8957 265.345 56.2218C265.184 56.5479 265.102 56.9439 265.102 57.4127C265.102 57.8815 265.181 58.2891 265.339 58.6152C265.497 58.9413 265.707 59.183 265.97 59.3431C266.233 59.5033 266.523 59.5819 266.838 59.5819C267.154 59.5819 267.449 59.5004 267.727 59.3373Z" fill="#2FC6F5"/>
<path d="M272.246 54.6786C272.533 54.4952 272.88 54.402 273.293 54.402V55.4007H273.062C272.077 55.4007 271.585 55.9889 271.585 57.1652V60.336H270.708V54.5068H271.585V55.4531C271.74 55.1212 271.96 54.8621 272.246 54.6757V54.6786Z" fill="#2FC6F5"/>
<path d="M275.184 52.4657V60.336H274.307V52.4657H275.184Z" fill="#2FC6F5"/>
<path d="M276.678 55.8316C276.897 55.3803 277.198 55.0309 277.581 54.7834C277.964 54.5359 278.393 54.4107 278.87 54.4107C279.282 54.4107 279.665 54.5156 280.019 54.7252C280.372 54.9348 280.641 55.2085 280.828 55.5492V52.4657H281.717V60.336H280.828V59.2412C280.656 59.5877 280.399 59.8731 280.057 60.0973C279.715 60.3215 279.317 60.4321 278.861 60.4321C278.405 60.4321 277.967 60.304 277.584 60.0507C277.201 59.7945 276.9 59.4363 276.68 58.9763C276.461 58.5162 276.353 57.9921 276.353 57.401C276.353 56.81 276.461 56.283 276.68 55.8316H276.678ZM280.586 56.2626C280.425 55.9365 280.209 55.6861 279.934 55.5114C279.659 55.3367 279.361 55.2493 279.031 55.2493C278.7 55.2493 278.405 55.3338 278.133 55.5055C277.864 55.6744 277.648 55.9248 277.487 56.2509C277.326 56.577 277.245 56.9614 277.245 57.401C277.245 57.8407 277.324 58.2367 277.487 58.5657C277.648 58.8947 277.864 59.1481 278.133 59.3199C278.402 59.4946 278.703 59.579 279.031 59.579C279.358 59.579 279.659 59.4916 279.934 59.3199C280.206 59.1452 280.425 58.8947 280.586 58.5657C280.747 58.2367 280.828 57.8524 280.828 57.4127C280.828 56.973 280.747 56.5916 280.586 56.2626Z" fill="#2FC6F5"/>
</svg>
