<svg width="15" height="12" viewBox="0 0 15 12" fill="none" xmlns="http://www.w3.org/2000/svg">
<path d="M13.125 0H1.875C1.37788 0.000531772 0.901278 0.198247 0.549762 0.549762C0.198247 0.901278 0.000531772 1.37788 0 1.875V9.91072C0.000531772 10.4078 0.198247 10.8844 0.549762 11.236C0.901278 11.5875 1.37788 11.7852 1.875 11.7857H13.125C13.6221 11.7852 14.0987 11.5875 14.4502 11.236C14.8018 10.8844 14.9995 10.4078 15 9.91072V1.875C14.9995 1.37788 14.8018 0.901278 14.4502 0.549762C14.0987 0.198247 13.6221 0.000531772 13.125 0ZM12.6502 3.10145L7.82879 6.85145C7.73478 6.92454 7.61909 6.96422 7.5 6.96422C7.38091 6.96422 7.26522 6.92454 7.17121 6.85145L2.34978 3.10145C2.29313 3.05867 2.24555 3.00506 2.2098 2.94374C2.17405 2.88241 2.15085 2.81459 2.14153 2.74422C2.13222 2.67385 2.13699 2.60232 2.15556 2.53381C2.17413 2.4653 2.20613 2.40116 2.2497 2.34512C2.29327 2.28908 2.34754 2.24226 2.40937 2.20737C2.47119 2.17249 2.53933 2.15024 2.60983 2.14192C2.68032 2.1336 2.75177 2.13938 2.82002 2.15891C2.88826 2.17844 2.95195 2.21134 3.00737 2.25569L7.5 5.74989L11.9926 2.25569C12.105 2.17086 12.2462 2.13365 12.3857 2.15211C12.5253 2.17058 12.652 2.24324 12.7384 2.35437C12.8248 2.46551 12.864 2.60619 12.8475 2.74599C12.831 2.8858 12.7601 3.01349 12.6502 3.10145Z" fill="#8F9098"/>
</svg>
