<svg width="30" height="30" viewBox="0 0 30 30" fill="none" xmlns="http://www.w3.org/2000/svg">
<circle cx="15" cy="15" r="15" fill="url(#paint0_radial_125_1444)"/>
<path d="M15.0002 16.0725C15.3074 16.0725 15.6117 16.012 15.8956 15.8944C16.1795 15.7768 16.4375 15.6044 16.6548 15.3871C16.8721 15.1698 17.0444 14.9119 17.162 14.628C17.2796 14.3441 17.3402 14.0398 17.3402 13.7325C17.3402 13.4252 17.2796 13.1209 17.162 12.837C17.0444 12.5531 16.8721 12.2951 16.6548 12.0779C16.4375 11.8606 16.1795 11.6882 15.8956 11.5706C15.6117 11.453 15.3074 11.3925 15.0002 11.3925C14.3795 11.3925 13.7844 11.639 13.3455 12.0779C12.9067 12.5167 12.6602 13.1119 12.6602 13.7325C12.6602 14.3531 12.9067 14.9483 13.3455 15.3871C13.7844 15.826 14.3795 16.0725 15.0002 16.0725Z" stroke="white" stroke-width="1.5"/>
<path d="M8.71478 12.3675C10.1923 5.8725 19.8148 5.88 21.2848 12.375C22.1473 16.185 19.7773 19.41 17.6998 21.405C16.9738 22.1052 16.0046 22.4964 14.996 22.4964C13.9875 22.4964 13.0182 22.1052 12.2923 21.405C10.2223 19.41 7.85228 16.1775 8.71478 12.3675Z" stroke="white" stroke-width="1.5"/>
<defs>
<radialGradient id="paint0_radial_125_1444" cx="0" cy="0" r="1" gradientUnits="userSpaceOnUse" gradientTransform="translate(14.625 14.625) rotate(84.4278) scale(15.448)">
<stop stop-color="#BEEDFF"/>
<stop offset="1" stop-color="#2FC6F5"/>
</radialGradient>
</defs>
</svg>
