<svg width="16" height="16" viewBox="0 0 16 16" fill="none" xmlns="http://www.w3.org/2000/svg">
<path fill-rule="evenodd" clip-rule="evenodd" d="M3.54852 5.91652V7.86175C3.54852 10.308 5.53973 12.2992 7.98599 12.2992C10.4322 12.2992 12.4235 10.308 12.4235 7.86175V5.91652H13.2303V7.86175C13.2303 10.6176 11.0933 12.884 8.38944 13.0907L8.38939 15.1932H10.4064V16H5.56555V15.1932H7.58257L7.58254 13.0907C4.87868 12.884 2.7417 10.6176 2.7417 7.86175V5.91652H3.54852ZM7.98599 0C9.98769 0 11.6166 1.62896 11.6166 3.63067V7.66473C11.6166 9.66643 9.98769 11.2954 7.98598 11.2954C5.98428 11.2954 4.35532 9.66643 4.35532 7.66473V3.63067C4.35532 1.62896 5.98428 0 7.98599 0Z" fill="#A5A5A5"/>
</svg>
