<svg width="20" height="20" viewBox="0 0 20 20" fill="none" xmlns="http://www.w3.org/2000/svg">
<path d="M2.5 7.59166V12.4C2.5 14.1667 2.5 14.1667 4.16667 15.2917L8.75 17.9417C9.44167 18.3417 10.5667 18.3417 11.25 17.9417L15.8333 15.2917C17.5 14.1667 17.5 14.1667 17.5 12.4083V7.59166C17.5 5.83333 17.5 5.83333 15.8333 4.70833L11.25 2.05833C10.5667 1.65833 9.44167 1.65833 8.75 2.05833L4.16667 4.70833C2.5 5.83333 2.5 5.83333 2.5 7.59166Z" stroke="#A8A8A8" stroke-linecap="round" stroke-linejoin="round"/>
<path d="M10 12.5C10.663 12.5 11.2989 12.2366 11.7678 11.7678C12.2366 11.2989 12.5 10.663 12.5 10C12.5 9.33696 12.2366 8.70107 11.7678 8.23223C11.2989 7.76339 10.663 7.5 10 7.5C9.33696 7.5 8.70107 7.76339 8.23223 8.23223C7.76339 8.70107 7.5 9.33696 7.5 10C7.5 10.663 7.76339 11.2989 8.23223 11.7678C8.70107 12.2366 9.33696 12.5 10 12.5Z" stroke="#A8A8A8" stroke-linecap="round" stroke-linejoin="round"/>
</svg>
